<svg width="47" height="47" viewBox="0 0 47 47" fill="none" xmlns="http://www.w3.org/2000/svg">
<rect width="47" height="47" rx="23.5" fill="#78458B"/>
<path d="M15 23.6959C15.0861 23.4979 15.1598 23.2751 15.2705 23.1018C15.4242 22.8625 15.6455 22.78 15.8791 22.78C16.1373 22.78 16.3955 22.78 16.6537 22.78C21.375 22.78 26.0902 22.7882 30.8115 22.7717C31.334 22.7717 31.7029 23.0028 31.8689 23.6959C31.8689 23.8444 31.8689 23.9929 31.8689 24.1415C31.8504 24.1992 31.832 24.257 31.8136 24.323C31.6906 24.7356 31.4693 24.9749 31.1373 25.0409C31.0758 25.0491 31.0144 25.0574 30.959 25.0574C25.9426 25.0574 20.9262 25.0574 15.9098 25.0574C15.4365 25.0574 15.1475 24.7273 15 24.1415C15 23.9929 15 23.8444 15 23.6959Z" fill="white"/>
<path d="M31.8691 17.3285C31.7646 17.7906 31.5617 18.1206 31.199 18.2279C31.1252 18.2527 31.0453 18.2527 30.9716 18.2527C27.3506 18.2527 23.7359 18.2527 20.115 18.2527C19.6539 18.2527 19.3096 17.8813 19.2297 17.312C19.156 16.8004 19.3834 16.2558 19.7584 16.0743C19.8629 16.0248 19.9797 16 20.0965 16C23.7297 16 27.3629 16 31.0023 16C31.4142 16 31.697 16.2806 31.8384 16.8004C31.8445 16.8334 31.8629 16.8582 31.8752 16.8912C31.8691 17.0314 31.8691 17.18 31.8691 17.3285Z" fill="white"/>
<path d="M31.8688 30.9464C31.8196 31.0784 31.7827 31.2187 31.7212 31.3342C31.5552 31.6725 31.3155 31.8376 31.0081 31.8376C30.2643 31.8376 29.5266 31.8376 28.7827 31.8376C27.0122 31.8376 25.2356 31.8376 23.4651 31.8376C23.004 31.8376 22.6597 31.458 22.5983 30.8804C22.5245 30.2038 22.8934 29.5932 23.4097 29.5767C23.6741 29.5684 23.9384 29.5767 24.2028 29.5767C26.4159 29.5767 28.6229 29.5767 30.836 29.5767C31.4384 29.5767 31.6413 29.7582 31.8688 30.5091C31.8688 30.6494 31.8688 30.7979 31.8688 30.9464Z" fill="white"/>
</svg>
