<svg width="47" height="47" viewBox="0 0 47 47" fill="none" xmlns="http://www.w3.org/2000/svg">
<rect width="47" height="47" rx="23.5" fill="#78458B"/>
<path d="M15.2592 15.0152C15.4549 14.9902 15.6523 14.9391 15.8586 14.9522C16.1444 14.9712 16.4098 15.1446 16.6415 15.3762C16.8975 15.6322 17.1535 15.8882 17.4095 16.1443C22.0907 20.8255 26.7613 25.5052 31.4517 30.1773C31.9698 30.6954 32.2067 31.1899 31.9849 31.7409C31.9021 31.8237 31.8192 31.9065 31.7364 31.9894C31.6859 32.0033 31.6355 32.0172 31.5804 32.0357C31.2284 32.1438 30.8756 32.0578 30.5096 31.7655C30.4441 31.7091 30.3785 31.6527 30.3237 31.5979C25.3499 26.6241 20.376 21.6502 15.4022 16.6764C14.9329 16.2071 14.8304 15.7366 15.0107 15.2637C15.0936 15.1809 15.1764 15.0981 15.2592 15.0152Z" fill="white"/>
<path d="M31.7413 15.0152C31.5456 14.9902 31.3482 14.9391 31.1419 14.9522C30.8561 14.9712 30.5907 15.1446 30.359 15.3762C30.103 15.6322 29.847 15.8882 29.591 16.1443C24.9098 20.8255 20.2392 25.5052 15.5488 30.1773C15.0307 30.6954 14.7938 31.1899 15.0156 31.7409C15.0984 31.8237 15.1812 31.9065 15.2641 31.9894C15.3145 32.0033 15.365 32.0172 15.4201 32.0357C15.772 32.1438 16.1249 32.0578 16.4908 31.7655C16.5564 31.7091 16.622 31.6527 16.6768 31.5979C21.6506 26.6241 26.6245 21.6502 31.5983 16.6764C32.0676 16.2071 32.1701 15.7366 31.9897 15.2637C31.9069 15.1809 31.8241 15.0981 31.7413 15.0152Z" fill="white"/>
</svg>
