<?xml version="1.0" encoding="utf-8"?>
<!-- Generator: Adobe Illustrator 27.8.1, SVG Export Plug-In . SVG Version: 6.00 Build 0)  -->
<svg version="1.1" id="Layer_1" xmlns="http://www.w3.org/2000/svg" xmlns:xlink="http://www.w3.org/1999/xlink" x="0px" y="0px"
	 viewBox="0 0 960 317" style="enable-background:new 0 0 960 317;" xml:space="preserve">
<style type="text/css">
	.st0{fill:#FCE103;}
	.st1{fill:#02B001;}
	.st2{fill:#06B106;}
	.st3{fill:#097FD9;}
	.st4{fill:#02AF02;}
	.st5{fill:#03B003;}
	.st6{fill:#04B004;}
	.st7{fill:#077FDC;}
	.st8{fill:#087FDC;}
	.st9{fill:#5996BC;}
</style>
<g>
	<path class="st0" d="M188.4,268.3c-5.5,1-10.2-0.9-14-4.8c-29.2-29.1-58.5-58-87.4-87.5c-13.4-13.7-17.3-30.6-13-49.3
		c4.7-0.1,9.3,0.1,14-0.3c3.5-0.3,4.2,1.2,4.2,4.3c-0.1,10.8-0.1,21.6,0,32.5c0,7.3,1.6,8.9,8.8,8.9c9.7,0,19.3,0,29,0
		c8.9,0,10.5-1.5,10.5-10.3c0-10.3,0.2-20.6-0.1-31c-0.1-3.6,1.1-4.5,4.5-4.4c10.5,0.2,21,0,31.5,0.1c2.9,0,5.6-0.2,8.1-1.8
		c1.9,2.2,3.1,0.4,4.4-0.8c7.3-7.3,14.5-14.7,21.9-21.8c26.4-25.2,68.9-17.4,84.4,15.4c9.2,19.4,5.5,43-9.5,58.3
		c-17.8,18.2-36,36.1-54,54.1c-0.9,0.9-1.8,2-3.3,2.1c-0.4-5.2,1.3-10.1,2-15.2c1.5-12,1.6-12.1,13.5-12.1c3.2,0,6.8,0.1,8.7-2.7
		c4-5.7,6.3-12,3.6-19.1c-0.8-2.8-3.1-3-5.5-3c-4.6,0-9.1,0-13.7,0c0.2-5.5,1.5-10.9,2.7-16.2c2.8-11.8,9.8-17.2,22.1-17.7
		c14-0.5,14.9-1.8,11.4-15.5c-1.6-6.4-3.8-8.8-10.1-9.1c-12.2-0.7-23.8,1.5-34.3,8.1c-14.3,9-21,22.5-24,38.5
		c-2.2,11.9-2.4,12.1-14.6,11.8c-15.5-0.4-30.8,1.1-46.1,3.4c1.9,0.7,3.9,1,5.8,1.3c5.6,0.9,11.2,1.8,16.8,2.5
		c2.2,0.3,3.6,1.2,3.5,3.3c-0.1,2.3-2.3,1.3-3.5,1.4c-3.2,0.5-6.5,0.7-9.8,1.1c4.1,1.4,8.2,2,12.3,2.6c1.5,0.2,2.7,0.6,2.7,2.2
		c0,1.7-1.4,1.5-2.5,1.6c-10.2,1.9-20.7,0.5-30.9,2.2c-1.1-1.2-2.3-0.8-3.5-0.2c-1.2,0.1-2.6-0.5-3.6,0.7c-3.3-1.7-6.5-0.2-9.8,0
		c3.3,0.4,6.5,0.8,9.8,0.2c3.5,1.2,7.1,0.6,10.7,0.7c1,0.6,2.1,0.6,3.2,0.1c0.7,0,1.4,0.1,2.1,0.1c1.3,0.6,2.6,0.5,3.9,0.1
		c0.7,0,1.4,0.1,2.1,0.1c0.6,0,1.3,0,1.9,0.1c12.6,0.7,25.3,1.3,37.9,0.9c3.8-0.1,5.1,0.8,4.2,4.7c-1.1,5-1.7,10.1-2.5,15.2
		C192.8,239.1,190.6,253.7,188.4,268.3z"/>
	<path class="st1" d="M184.4,124.7c-2.5,1.7-5.2,1.9-8.1,1.8c-10.5,0-21,0.1-31.5-0.1c-3.4-0.1-4.6,0.8-4.5,4.4
		c0.2,10.3,0.1,20.6,0.1,31c0,8.8-1.6,10.3-10.5,10.3c-9.7,0-19.3,0-29,0c-7.2,0-8.7-1.6-8.8-8.9c0-10.8-0.1-21.6,0-32.5
		c0-3.1-0.7-4.6-4.2-4.3c-4.6,0.3-9.3,0.2-14,0.3c-6.3-0.1-12.6-0.1-19-0.3c-7-0.2-8.8-2-8.9-9c0-10.3,0-20.6,0-31
		c0-6.5,2-8.5,8.7-8.6c10.8,0,21.6-0.2,32.5,0.1c3.6,0.1,4.9-0.7,4.8-4.6c-0.3-11-0.1-22-0.1-32.9c0-6.2,2.2-8.3,8.5-8.3
		c10.5-0.1,21-0.1,31.5,0c6.3,0.1,8.3,2.1,8.3,8.5c0.1,11.1,0.1,22.3-0.1,33.4c0,3,0.6,4,3.8,3.9c11.1-0.2,22.3-0.1,33.5-0.1
		c6.6,0,8.6,2.1,8.7,8.7c0.1,10.5,0,21,0,31.4C186.3,120.5,185.9,122.7,184.4,124.7z"/>
	<path class="st2" d="M194.7,99.9c0-5.8,0.1-10.9,0-16c0-2.4,1.6-3.5,3.2-4.8c23.5-18.4,49.4-23.1,77.4-12.7
		c47.8,17.7,65.7,76.5,36.3,118.1c-4.1,5.9-8.8,11.2-13.9,16.3c-26.7,26.5-53.4,53-79.9,79.7c-11.2,11.3-24.1,16.1-39.8,13.4
		c-8.9-1.5-16-6.4-22.2-12.6c-28.1-27.9-56.2-55.9-84.3-83.9c-8.1-8-14.8-17.1-19.1-27.8c-3.9-9.7-5.8-19.7-5.9-30.1
		c0-3.1,0.8-4.5,4.2-4.6c9.3-0.2,9.6-0.4,10.3,8.7c1.3,17.4,8.7,31.6,21.1,43.8c27.9,27.5,55.4,55.3,83,83
		c8.3,8.3,18.1,11.7,29.6,8.1c4.7-1.4,8.7-4.2,12.2-7.6c28.3-28.2,56.5-56.5,84.7-84.8c13.3-13.3,20.7-29.3,19.9-48.4
		c-1.7-41.4-37.7-67.1-75-61.4c-13.6,2.1-25.1,8.5-34.8,18.1c-1.5,1.5-3.1,3-4.7,4.4C196.6,99.3,196.1,99.4,194.7,99.9z"/>
	<path class="st3" d="M131.5,202.1c1-1.2,2.4-0.6,3.6-0.7c1.2,0.1,2.3,0.1,3.5,0.2c10.2-1.7,20.7-0.2,30.9-2.2
		c1-0.2,2.5,0.1,2.5-1.6c0-1.7-1.2-2.1-2.7-2.2c-4.1-0.5-8.2-1.2-12.3-2.6c3.3-0.3,6.5-0.6,9.8-1.1c1.3-0.2,3.4,0.9,3.5-1.4
		c0.1-2.1-1.4-3.1-3.5-3.3c-5.6-0.7-11.2-1.6-16.8-2.5c-1.9-0.3-3.9-0.7-5.8-1.3c15.3-2.3,30.6-3.8,46.1-3.4
		c12.2,0.3,12.4,0.1,14.6-11.8c3-16,9.8-29.6,24-38.5c10.5-6.6,22.2-8.8,34.3-8.1c6.4,0.3,8.5,2.8,10.1,9.1
		c3.5,13.6,2.5,14.9-11.4,15.5c-12.3,0.5-19.3,5.8-22.1,17.7c-1.3,5.3-2.6,10.7-2.7,16.2c-1.5,2.9,0.6,2.9,2.5,2.9
		c5.6,0,11.1,0,16.7,0.1c2.7,7.1,0.4,13.4-3.6,19.1c-2,2.8-5.5,2.7-8.7,2.7c-11.9,0-12,0.1-13.5,12.1c-0.6,5.1-2.4,10-2,15.2
		c-2.3,4.5-6.4,7.4-9.9,10.9c-6.4,6.7-13.1,13.1-19.6,19.7c-3,3-6.3,5.2-10.6,5.7c2.2-14.6,4.4-29.2,6.6-43.8
		c0.8-5.1,1.4-10.2,2.5-15.2c0.8-3.9-0.4-4.8-4.2-4.7c-12.6,0.4-25.3-0.2-37.9-0.9c-0.6-0.8-1.2-0.9-1.9-0.1c-0.7,0-1.4-0.1-2.1-0.1
		c-1.3-1-2.6-0.9-3.9-0.1c-0.7,0-1.4-0.1-2.1-0.1c-1-0.7-2.1-0.5-3.2-0.1c-3.6-0.1-7.2,0.5-10.7-0.7
		C131.5,202.3,131.5,202.1,131.5,202.1z"/>
	<path class="st4" d="M361.4,201.8c0-15.3,0.1-30.6-0.1-46c0-2.9,0.5-4.1,3.8-4c6,0.3,12,0.2,18,0c2.9-0.1,3.6,0.9,3.6,3.7
		c-0.2,10,0.1,20-0.1,30c-0.1,3.2,0.9,4,3.9,3.9c8.2-0.2,16.3-0.2,24.5,0c3.4,0.1,4.6-0.8,4.5-4.4c-0.3-9.7,0-19.3-0.1-29
		c-0.1-3,0.4-4.5,4-4.3c5.8,0.3,11.7,0.2,17.5,0c2.7-0.1,3.8,0.5,3.7,3.5c-0.1,30.8-0.1,61.6,0,92.4c0,2.7-0.6,3.8-3.6,3.7
		c-6-0.2-12-0.2-18,0c-2.8,0.1-3.7-0.8-3.6-3.6c0.2-10.7,0-21.3,0.1-32c0-3-0.4-4.4-4-4.3c-8.3,0.3-16.7,0.2-25,0
		c-3-0.1-4,0.7-3.9,3.9c0.2,10.7,0,21.3,0.1,32c0,2.9-0.6,4.2-3.8,4c-6-0.3-12-0.2-18,0c-3.1,0.1-3.5-1.1-3.5-3.8
		C361.5,232.4,361.4,217.1,361.4,201.8z"/>
	<path class="st5" d="M875.3,171.6c0.5,4.4-2.3,11.4,1.1,14.4c2.9,2.6,9.8,0.8,14.9,0.9c4.5,0.1,9,0,13.5,0c3.7,0,5.5,1.8,5.5,5.6
		c0,6,0,12,0,18c0,4.1-1.9,6.1-6.1,6.1c-8.2-0.1-16.3,0.2-24.5-0.1c-3.9-0.2-4.7,1.2-4.6,4.8c0.3,7.8,0.1,15.6,0.1,23.5
		c0,5.4-1.3,6.7-6.8,6.8c-5,0.1-10,0.1-15,0c-6.4,0-7.6-1.2-7.7-7.6c0-7.7-0.2-15.3,0.1-23c0.1-3.4-0.7-4.6-4.3-4.5
		c-8,0.3-16,0-24,0.1c-4.6,0.1-6.7-1.8-6.6-6.6c0.2-5.5,0.2-11,0-16.5c-0.1-4.6,1.9-6.7,6.5-6.6c8,0.1,16-0.2,24,0.1
		c3.6,0.1,4.5-1.1,4.4-4.5c-0.2-7.8-0.1-15.7-0.1-23.5c0-5.6,1.5-7,7.2-7.1c5.5-0.1,11,0,16.5,0c3.8,0,5.9,1.8,5.8,5.8
		C875.3,162.1,875.3,166.4,875.3,171.6z"/>
	<path class="st5" d="M596.3,244.6c-10.6,12.9-34.6,11.8-47.5-0.4c-17.3-16.4-16.7-54.3,9.9-66.2c13.1-5.8,25.8-5.6,37.6,5.8
		c-1.6-8.3,3.7-7,7.9-6.8c4.7,0.2,11.1-2.2,13.8,1c2.3,2.8,0.8,8.9,0.8,13.5c0,18.3-0.1,36.6,0.1,54.9c0.1,4.3-1.3,5.5-5.3,5.1
		c-3.3-0.3-6.7-0.3-10,0C598.8,251.9,594.9,251.6,596.3,244.6z M559.4,214.2c0,10.8,8,18.9,18.4,18.8c10.9-0.1,18.9-8.2,18.8-19
		c-0.2-11.1-8-19-18.9-18.9C567.2,195.3,559.3,203.5,559.4,214.2z"/>
	<path class="st6" d="M740.4,183c8.3-9,17.9-10,28.1-7.7c11.4,2.6,16.3,11,17.7,21.6c2.3,17.2,0.6,34.6,1.1,51.9
		c0.1,2-0.8,2.6-2.7,2.6c-5.7-0.1-11.3-0.1-17,0c-3.4,0.1-2.6-2.3-2.6-4.1c0-11.2,0-22.3,0-33.5c0-2,0-4-0.2-6
		c-0.7-8.6-4.4-12.6-11.7-12.5c-7.9,0-12.3,4.3-12.5,13c-0.3,12.5-0.3,25,0,37.5c0.1,4.7-1.3,6.1-5.8,5.7c-4.1-0.4-8.3-0.3-12.5,0
		c-3.4,0.2-4.1-1.1-4.1-4.3c0.1-30.5,0.1-61,0-91.4c0-3,0.7-4.1,3.9-4c4.6,0.3,9.3,0.3,14,0c3.4-0.2,4.6,0.8,4.5,4.4
		C740.2,164.8,740.4,173.4,740.4,183z"/>
	<path class="st6" d="M502.4,221.8c-7.8,0-15.7,0.2-23.5-0.1c-4.7-0.2-4.4,1.6-2.7,4.7c4.7,8.9,19.1,11.7,26.3,4.5
		c2.6-2.6,5.1-3.2,8.3-3.1c4.5,0.1,9,0.2,13.5,0c3.3-0.2,3.6,0.7,2.2,3.6c-8.8,18.7-31.4,27.3-50.3,19
		c-16.6-7.2-26.1-24.6-23.4-42.7c2.5-17.3,16.8-31.5,34.4-33.2c26.4-2.5,46,18.5,43.2,44.9c-0.3,2.6-1.9,2.2-3.5,2.2
		C518.7,221.8,510.5,221.8,502.4,221.8z M508.2,204.9c-3-7.8-7.4-11.1-15.2-11.7c-6.8-0.5-12.4,1.8-16.3,7.6c-1,1.5-3.4,4.1,1.2,4.1
		C487.8,205,497.8,204.9,508.2,204.9z"/>
	<path class="st5" d="M675.4,222.2c0-8.1-0.2-16.3,0.1-24.4c0.1-3.3-1-4.2-4.2-4.1c-6.9,0.2-6.9,0-6.9-7c0-0.7,0-1.3,0-2
		c0-7.6,0-7.8,7.4-7.7c3.3,0.1,3.8-1.2,3.7-4.1c-0.2-6,0-12-0.1-18c-0.1-2.4,0.7-3.2,3.1-3.1c5.3,0.2,10.7,0.2,16,0
		c2.8-0.1,3.3,1.2,3.3,3.6c-0.1,5.8,0.2,11.7-0.1,17.5c-0.2,3.4,1.1,4.2,4.3,4.1c6.5-0.1,6.5,0,6.5,6.6c0,0.5,0,1,0,1.5
		c0,8.1,0,8.3-7.9,8.7c-3.2,0.2-2.8,2-2.8,4c0,16.3-0.1,32.6,0.1,48.9c0.1,3.9-0.9,5.3-5,5c-4.3-0.4-8.7-0.3-13,0
		c-3.4,0.2-4.6-0.7-4.5-4.3C675.6,238.9,675.4,230.6,675.4,222.2z"/>
	<path class="st1" d="M654.7,201.8c0,14.8-0.2,29.6,0.1,44.4c0.1,4.6-1.4,5.7-5.6,5.3c-4.5-0.4-9-0.2-13.5,0
		c-2.5,0.1-3.4-0.6-3.4-3.3c0.1-30.9,0.1-61.9,0-92.8c0-3,1-3.6,3.7-3.5c5,0.2,10,0.3,15,0c3.3-0.2,3.8,1.2,3.8,4
		C654.6,171.2,654.7,186.5,654.7,201.8z"/>
	<path class="st7" d="M473.8,98.7c3.8-3.1,6.7-5.5,10.3-7c9.7-3.9,17.7-0.2,20.6,9.8c3.6,12.4-2.3,28.1-12.8,33.9
		c-5.1,2.8-10.7,4.1-16.4,3.3c-5.3-0.8-7.1,1.4-7,6.3c0,1.5-0.4,3-0.6,4.4c-1.1,6.6-4.3,8.5-10.8,6.9c-2.6-0.7-3.4-2.3-3-4.9
		c3-18.3,5.9-36.7,8.8-55c0.6-4.1,2.8-5.5,6.8-5.4C474.4,91.2,473.9,94.6,473.8,98.7z M476.4,127.9c5.3,0.2,9.1-0.6,11.7-4.3
		c3.1-4.5,4.3-9.6,3.7-15.1c-0.3-2.8-1.1-5.3-3.9-6.4c-3-1.2-5.1,0.8-7,2.5c-5,4.4-8.2,9.6-8.7,16.6
		C471.7,127.3,471.6,127.8,476.4,127.9z"/>
	<path class="st7" d="M540.9,137.9c-3.6,0.8-6-0.9-7.1-5.1c-1-3.5-2.7-6.7-4-10.2c-0.6-1.7-1.5-2.3-3.3-2.3c-2.1,0-2.4,1.3-2.7,2.9
		c-0.5,3.4-1,6.9-1.6,10.3c-0.8,4.2-3.9,5.5-10.4,4.3c-4.1-0.7-3.1-3.6-2.7-6.2c2.8-17.4,5.5-34.8,8.3-52.2
		c0.9-5.6,2.9-6.7,10.3-5.6c4.8,0.7,3.2,4,2.8,6.9c-1.3,8-2.6,16.1-3.8,24.1c-0.2,1.5-1.4,3.7,0.2,4.6c1.5,0.9,3.6-0.3,5-1.4
		c3.9-3.1,6.2-7.4,8.3-11.7c2.3-4.8,7.3-6.9,12.2-5c2.7,1,2.7,3.1,1.8,5.3c-2.3,6-5.8,11.2-10.2,15.8c-1.9,2-2.7,3.6-1.2,6.4
		c1.8,3.3,2.8,7.1,4.3,10.6C550,136.8,549.3,137.9,540.9,137.9z"/>
	<path class="st7" d="M587.2,130.4c-4,3.6-7.6,6.5-12.2,7.8c-8.2,2.4-15-0.9-18-8.9c-4.3-11.5,0-33.5,18.4-38
		c8.9-2.2,17.5-0.6,26.1,0.9c2.5,0.4,2.7,2.6,2.3,5.1c-2,11.4-3.9,22.9-5.4,34.4c-0.6,4.5-2.2,6.4-7,6.2
		C586.2,137.7,587.5,134.2,587.2,130.4z M569.1,118.4c0.2,3,0,7,4.2,8.7c3.9,1.5,6.1-1.8,8.5-3.9c5.5-4.9,6.8-11.5,7.6-18.4
		c0.2-2.3-0.8-2.8-2.8-3.1C576.1,99.7,569.5,105.7,569.1,118.4z"/>
	<path class="st8" d="M390,112.8c-10.2,0-10.2,0-11.9,9.9c-0.5,2.9-1.1,5.9-1.6,8.8c-0.9,5.5-7.3,8.6-12.6,6
		c-2.4-1.2-1.8-3.4-1.5-5.3c1.8-12,3.7-24,5.6-35.9c0.8-5.4,1.7-10.8,2.4-16.2c0.5-4.2,1.9-6.5,6.9-6.3c9.5,0.4,19,0.1,28.5,0.1
		c2.7,0,5.5-0.3,5.5,3.8c0,5.5-1.6,7.8-5.9,7.9c-6,0.1-12,0.2-18,0c-2.9-0.1-4.2,0.7-4.3,3.8c-0.1,4.1-3.1,9.1-0.7,11.8
		c2.2,2.5,7.6,0.5,11.5,0.7c1,0.1,2,0,3,0c2.9-0.1,6.1-0.3,5.7,4c-0.3,3.5-0.4,7.3-5.7,6.8C394.7,112.6,392.4,112.8,390,112.8z"/>
	<path class="st8" d="M645,126.6c1.1-6.7,2.2-13.4,3.2-20.1c0.3-2.1,1.2-4.1-2.3-5.3c-3.3-1.1-2.5-8.7,1-9.3
		c4.5-0.7,4.8-3.8,5.8-6.8c1.5-5,5.2-6.9,10.2-5.2c3.1,1,2.7,3.4,2,5.7c-1,3.6-1.1,6.2,4,5.6c2.7-0.3,3.9,1.6,3.5,4.2
		c-0.4,2.7-0.3,6.6-4.2,6.1c-6.3-0.8-6.5,3-6.9,7.3c-0.5,4.4-1.4,8.8-2,13.3c-0.4,2.8,0.4,5,3.9,4.9c2-0.1,3.9,0.3,4.1,2.6
		c0.2,2.6,0.6,5.5-1.8,7.4c-4,3.3-14.7,2-18-2C645.2,132.6,645.3,129.6,645,126.6z"/>
	<path class="st7" d="M425.4,73.9c6.2,0,6.9,0.9,5.8,7.6c-2.1,13.1-4.2,26.3-6.3,39.4c-0.5,3.1-0.6,5.6,3.1,7.4
		c3.4,1.7,2.4,8-1.3,9.7c-8.5,3.9-17.2-1.6-16-10.8c2.2-16.6,5.1-33.1,7.7-49.7C419.1,73,422.5,74.1,425.4,73.9z"/>
	<path class="st8" d="M623.6,100.1c3.8-3.6,7-7,11.6-8.5c4.7-1.6,6.2-0.3,5.6,4.4c-0.6,4.6-1.9,7.6-7.1,9.3
		c-6.3,2.1-11.5,6.3-11.8,14.4c-0.2,4.9-1.3,9.9-2.4,14.7c-1.5,6-6.6,3-10.1,3.3c-3.8,0.2-3.2-3.1-2.9-5.5c1.8-12,3.9-24,5.6-36
		c0.6-4.5,3.1-5.3,6.9-5.1C625.2,91.5,622.5,96.3,623.6,100.1z"/>
	<path class="st8" d="M442,137.9c-6.4,0-7.2-0.7-6.4-5.8c1.8-11.8,3.7-23.6,5.7-35.4c0.9-5.1,3.6-6.5,10-5.5
		c5.1,0.9,3.2,4.7,2.8,7.5c-1.5,11-3.5,22-4.9,33C448.6,136.6,446.4,138.9,442,137.9z"/>
	<path class="st8" d="M449.4,87.1c-3.9,0-6.5-1.6-6.5-5.8c-0.1-4.7,3.7-8.2,8.8-8.1c3.8,0.1,6.5,1.7,6.6,5.8
		C458.4,83.7,454.6,87,449.4,87.1z"/>
	<path class="st9" d="M256.3,182.8c-5.6,0-11.1,0-16.7-0.1c-1.9,0-3.9,0-2.5-2.9c4.6,0,9.1,0,13.7,0
		C253.2,179.9,255.5,180,256.3,182.8z"/>
	<path class="st9" d="M131.5,202.1c0,0,0,0.2,0,0.2c-3.3,0.6-6.5,0.2-9.8-0.2C124.9,202,128.2,200.4,131.5,202.1z"/>
	<path class="st9" d="M147.5,203.3c1.3-0.8,2.6-0.8,3.9,0.1C150.1,203.8,148.8,203.9,147.5,203.3z"/>
	<path class="st9" d="M138.6,201.7c-1.2-0.1-2.3-0.1-3.5-0.2C136.3,200.9,137.5,200.5,138.6,201.7z"/>
	<path class="st9" d="M142.2,203.1c1.1-0.4,2.2-0.5,3.2,0.1C144.3,203.6,143.2,203.7,142.2,203.1z"/>
	<path class="st9" d="M153.5,203.6c0.7-0.8,1.3-0.8,1.9,0.1C154.8,203.6,154.2,203.6,153.5,203.6z"/>
</g>
</svg>
