<svg width="28" height="30" viewBox="0 0 28 30" fill="none" xmlns="http://www.w3.org/2000/svg">
<path d="M10.6897 0C13.2255 3.97158 15.5078 7.49835 17.9168 11.2793C18.8043 10.1037 19.5968 9.02344 20.6745 7.59367C22.925 11.2158 25.239 14.4248 26.9507 17.9198C28.9159 21.9867 26.5069 26.562 21.9424 27.5151C21.4035 27.6422 18.836 27.5151 18.1704 27.0068C18.107 26.975 17.9802 27.5469 17.0292 28.3095C14.2081 30.6606 7.07614 30.7242 3.3358 27.4516C-0.531332 24.0201 -0.975101 18.9047 1.68751 14.4566C4.50862 9.75421 7.48821 5.14717 10.6897 0ZM20.6745 10.9616C19.1213 13.8529 17.5681 16.2676 16.4587 18.9047C15.5394 21.0653 16.4587 23.0034 18.2021 24.4014C19.882 25.7359 22.2594 25.6088 23.8126 24.0837C25.4292 22.4951 25.9363 20.4934 24.922 18.3964C23.7175 15.9817 22.2594 13.7258 20.6745 10.9616Z" fill="white"/>
</svg>
