<svg width="35" height="29" viewBox="0 0 35 29" fill="none" xmlns="http://www.w3.org/2000/svg">
<path d="M24.4414 25.7205C24.3662 25.7205 24.2784 25.708 24.2282 25.708C24.0652 26.0968 23.7266 26.2472 23.4005 26.4103C23.3253 26.4103 23.2626 26.4103 23.1874 26.4103C23.1748 26.4353 23.1497 26.4479 23.1372 26.473C22.9491 26.636 22.7735 26.8116 22.5729 26.9495C22.3848 27.0749 22.1465 27.1251 21.9584 27.2379C21.8079 27.3257 21.6825 27.4762 21.532 27.5891C21.4442 27.6141 21.3439 27.6267 21.2561 27.6518C21.1683 27.7396 21.0931 27.8775 20.9802 27.9151C20.7043 28.028 20.5413 28.3917 20.1526 28.3039C20.1526 28.3039 20.14 28.3791 20.1149 28.3917C20.0146 28.4794 19.9143 28.5672 19.7889 28.6174C19.6384 28.6801 19.4628 28.7052 19.2998 28.7553C19.2622 28.7804 19.1995 28.8306 19.1869 28.818C18.9236 28.6174 18.6477 28.8557 18.422 28.8055C18.0834 28.7303 17.7699 28.793 17.4438 28.818C17.1679 28.7553 16.892 28.6926 16.6036 28.6299C16.3904 28.5672 16.1898 28.492 15.9766 28.4293C15.7007 28.3791 15.4248 28.329 15.1489 28.2788C14.9357 28.2161 14.7225 28.1534 14.5219 28.0907C14.2711 28.0154 14.0077 27.9527 13.7569 27.8775C13.5312 27.8273 13.2929 27.7897 13.0672 27.7396C12.8164 27.6894 12.553 27.6392 12.3022 27.6016C12.0765 27.5389 11.8382 27.4637 11.6125 27.401C11.3617 27.3508 11.0983 27.3006 10.8475 27.263C10.6218 27.2003 10.3835 27.1251 10.1578 27.0624C9.8819 27.0122 9.60601 26.962 9.33012 26.9119C9.10439 26.8617 8.86612 26.8241 8.64039 26.7739C8.40212 26.7112 8.17639 26.6485 7.93813 26.5858C7.88796 26.5733 7.85034 26.5733 7.80018 26.5607C7.61207 26.5106 7.42397 26.473 7.2484 26.4228C7.17316 26.4103 7.11045 26.3852 7.03521 26.3726C6.8471 26.3225 6.659 26.2849 6.48343 26.2347C6.43327 26.2222 6.39565 26.2222 6.34548 26.2096C5.80624 26.0215 5.29208 25.9964 4.76538 26.2723C3.51133 26.9244 2.24475 27.5389 0.990698 28.1534C0.827672 28.2286 0.627024 28.2537 0.451457 28.3039C0.313512 28.1409 0.163026 27.9778 0.0250809 27.8023C-0.0125405 27.4762 0.163026 27.3132 0.438917 27.1752C1.79329 26.5106 3.1602 25.8585 4.50203 25.1437C5.06635 24.8427 5.63068 24.9806 6.20754 24.9681C6.30786 24.9681 6.40819 24.9932 6.49597 25.0057C6.74678 25.081 7.01013 25.1437 7.26094 25.2189C7.39888 25.244 7.53683 25.2691 7.67477 25.2942C8.01337 25.3694 8.32688 25.6077 8.70309 25.545C8.84104 25.5826 8.99153 25.6202 9.12947 25.6578C9.48061 25.7331 9.78158 25.9839 10.1578 25.8836C10.2957 25.9212 10.4462 25.9588 10.5842 25.9964C10.6594 26.009 10.7221 26.034 10.7974 26.0466C10.9855 26.0968 11.1736 26.1344 11.3491 26.1845C11.4369 26.2096 11.5372 26.2347 11.625 26.2598C11.763 26.2849 11.9009 26.3225 12.0389 26.3476C12.1141 26.3601 12.1768 26.3852 12.2521 26.3977C12.4402 26.4479 12.6283 26.4855 12.8038 26.5357C12.8916 26.5607 12.9919 26.5858 13.0797 26.6109C13.2177 26.636 13.3556 26.6736 13.4936 26.6987C13.5688 26.7112 13.6315 26.7363 13.7067 26.7489C13.8949 26.799 14.083 26.8366 14.2585 26.8868C14.3463 26.9119 14.4466 26.937 14.5344 26.962C14.6724 26.9871 14.8103 27.0247 14.9483 27.0498C15.1113 27.0874 15.2743 27.1251 15.4373 27.1627C15.5126 27.1878 15.5753 27.2129 15.6505 27.2379C15.8135 27.2756 15.9766 27.3006 16.1396 27.3383C16.2274 27.3633 16.3152 27.3759 16.4155 27.401C16.5158 27.4386 16.6161 27.4762 16.7165 27.5013C17.0174 27.5765 17.3059 27.6518 17.6068 27.727C17.657 27.727 17.6946 27.727 17.7448 27.727C17.958 27.727 18.1586 27.727 18.3718 27.727C18.5975 27.727 18.8358 27.727 19.0615 27.727C19.1117 27.7019 19.1493 27.6894 19.1995 27.6643C19.2496 27.6518 19.2998 27.6267 19.35 27.6141C19.4252 27.5891 19.4879 27.564 19.5632 27.5389C19.6133 27.5138 19.6509 27.4887 19.7011 27.4637C19.9268 27.3383 20.1651 27.2129 20.3908 27.1C20.4535 27.0624 20.5288 27.0122 20.5915 26.9746C20.7043 26.8993 20.8297 26.8241 20.9426 26.7614C21.0053 26.7238 21.0806 26.6736 21.1433 26.636C21.2561 26.5607 21.3815 26.4855 21.4944 26.4228C21.5445 26.4103 21.5947 26.3852 21.6323 26.3726C21.7703 26.2723 21.9082 26.172 22.0462 26.0717C22.0963 26.0591 22.1465 26.034 22.1841 26.0215C22.3221 25.9463 22.46 25.871 22.5979 25.7958C22.6607 25.7456 22.7234 25.708 22.7861 25.6578C22.8111 25.6578 22.8237 25.6453 22.8488 25.6453C22.8989 25.5826 22.9491 25.5199 22.9992 25.4572C23.1121 25.3819 23.2375 25.3067 23.3504 25.244C23.4131 25.2064 23.4883 25.1562 23.551 25.1186C23.6639 25.0434 23.7893 24.9681 23.9022 24.9054C23.9649 24.8678 24.0401 24.8176 24.1028 24.78C24.2157 24.7048 24.3411 24.6295 24.4539 24.5668C24.5041 24.5543 24.5543 24.5292 24.5919 24.5167C24.7298 24.4163 24.8678 24.316 25.0057 24.2157C25.0559 24.2031 25.106 24.1781 25.1437 24.1655C25.3819 23.99 25.6202 23.8018 25.871 23.6388C26.3601 23.3253 26.8617 23.0118 27.3508 22.6983C27.865 22.3597 28.3791 22.0086 28.8933 21.67C28.9058 21.6574 28.9309 21.6449 28.9434 21.6449C28.9309 21.6323 28.9058 21.6073 28.8933 21.5947C28.8933 21.5822 28.8933 21.5571 28.8933 21.5446C28.9434 21.532 28.9811 21.532 29.0312 21.5195C29.1065 21.5195 29.1692 21.5195 29.2444 21.5195C29.2946 21.5069 29.3447 21.4819 29.3823 21.4693C29.5203 21.369 29.6582 21.2687 29.7962 21.1683C30.1348 20.9552 30.4859 20.742 30.837 20.5162C31.4891 20.1149 32.1413 19.7136 32.7934 19.2998C33.2699 18.9988 33.4078 18.4721 33.2072 17.9078C33.1821 17.8702 33.1445 17.82 33.1194 17.7824C33.0316 17.6821 32.9438 17.5818 32.8561 17.494C32.8059 17.4814 32.7557 17.4564 32.7181 17.4438C32.6554 17.4187 32.5802 17.3937 32.5175 17.3686C32.4297 17.356 32.3294 17.331 32.2416 17.3184C31.8779 17.2557 31.6146 17.4689 31.3387 17.6445C31.2509 17.7072 31.1506 17.7824 31.0628 17.8451C31.0126 17.8451 30.9374 17.8451 30.8997 17.8702C30.1473 18.3217 29.3949 18.7856 28.6425 19.2371C28.5547 19.2998 28.4544 19.3751 28.3666 19.4378C28.3039 19.4503 28.2286 19.4503 28.1659 19.4754C27.5264 19.8516 26.8868 20.2403 26.2472 20.6291C26.1344 20.7043 26.034 20.8047 25.9337 20.8925C25.8459 20.9426 25.7456 20.9802 25.6578 21.0304C24.8427 21.4944 24.0401 21.9584 23.225 22.4224C23.1121 22.4976 22.9992 22.5729 22.8738 22.6481C22.5227 22.8362 22.1841 23.0243 21.833 23.1999C21.7577 23.2375 21.695 23.2877 21.6198 23.3253C21.1558 23.5134 20.7043 23.7015 20.2403 23.8896C19.4879 23.9523 18.8358 23.7015 18.1962 23.3378C17.5065 22.9491 16.7917 22.6105 16.0894 22.2594C16.0017 22.2217 15.8888 22.2092 15.801 22.2092C15.0486 22.2092 14.2961 22.2092 13.5563 22.2092C12.9919 22.2092 12.854 22.0713 12.8164 21.5195C12.9543 21.3815 13.1048 21.231 13.2427 21.0931C16.0267 21.0931 18.7982 21.0931 21.5822 21.0931C22.0712 21.1558 22.4725 21.0429 22.6983 20.5539C22.8362 20.2027 22.8111 19.8767 22.5603 19.5757C22.2594 19.1744 21.7954 19.2371 21.369 19.1744C21.1182 19.1242 20.8548 19.0866 20.604 19.0365C20.2529 18.9863 19.9143 18.9487 19.5632 18.8985C19.0992 18.8358 18.6226 18.7982 18.1586 18.7229C17.8075 18.6602 17.4689 18.5599 17.1303 18.4847C17.0551 18.4847 16.9924 18.4847 16.9171 18.4847C16.8293 18.4596 16.729 18.4345 16.6412 18.4094C16.4782 18.3844 16.3152 18.3593 16.1521 18.3342C15.9013 18.284 15.638 18.2464 15.3872 18.1962C15.3119 18.1962 15.2492 18.1962 15.174 18.1962C15.0862 18.1712 14.9859 18.1461 14.8981 18.121C14.7351 18.0959 14.572 18.0708 14.409 18.0458C14.1582 17.9956 13.8949 17.958 13.644 17.9078C13.5688 17.9078 13.5061 17.9078 13.4309 17.9078C13.3431 17.8827 13.2427 17.8577 13.155 17.8326C12.9919 17.8075 12.8289 17.7824 12.6659 17.7573C12.4151 17.7072 12.1517 17.6695 11.9009 17.6194C11.8257 17.6194 11.763 17.6194 11.6877 17.6194C11.5999 17.5943 11.4996 17.5692 11.4118 17.5441C11.2488 17.5191 11.0858 17.494 10.9228 17.4689C10.672 17.4187 10.4086 17.3811 10.1578 17.331C9.75649 17.1428 9.31758 17.2557 8.90374 17.193C8.65293 17.2432 8.38958 17.2808 8.13877 17.331C8.08861 17.331 8.05099 17.331 8.00083 17.331C7.96321 17.356 7.91304 17.3686 7.87542 17.3937C7.54937 17.5316 7.23586 17.6695 6.90981 17.82C6.50851 17.9956 6.10721 18.1962 5.70592 18.3593C5.1416 18.5975 4.57728 18.8107 4.02549 19.049C3.46117 19.2873 2.89685 19.5632 2.34507 19.814C1.80583 20.0522 1.25405 20.2905 0.714808 20.5288C0.639565 20.5288 0.576862 20.5288 0.501619 20.5288C0.338593 20.4034 0.188107 20.2905 0.0250809 20.1651C0.0125405 20.0773 0.0125405 19.977 0 19.8892C0.125405 19.7262 0.225729 19.5005 0.401295 19.4252C1.17881 19.0741 1.9814 18.7606 2.77145 18.4345C3.6242 18.0834 4.46441 17.7197 5.30462 17.3435C5.89403 17.0927 6.45835 16.7917 7.04775 16.566C7.53683 16.3779 8.05099 16.2776 8.55261 16.1271C9.20471 16.1772 9.84428 16.2149 10.4964 16.265C10.5716 16.265 10.6343 16.265 10.7096 16.265C10.7723 16.2776 10.8475 16.2776 10.9102 16.2901C11.0983 16.3277 11.2864 16.3653 11.4745 16.403C11.7254 16.4531 11.9887 16.4907 12.2395 16.5409C12.3148 16.5409 12.3775 16.5409 12.4527 16.5409C12.5405 16.566 12.6408 16.5911 12.7286 16.6161C12.9167 16.6412 13.1048 16.6663 13.2804 16.6914C13.3682 16.7165 13.4685 16.7416 13.5563 16.7666C13.9074 16.8168 14.246 16.8544 14.5971 16.9046C14.9733 16.9798 15.337 17.0425 15.7132 17.1178C15.9264 17.1428 16.1271 17.1679 16.3402 17.193C16.7165 17.2683 17.0801 17.331 17.4564 17.4062C17.8075 17.4564 18.1461 17.494 18.4972 17.5441C18.7229 17.5943 18.9612 17.6319 19.1869 17.6821C19.4879 17.7322 19.7889 17.7699 20.0899 17.82C20.3657 17.8702 20.6416 17.9078 20.9175 17.958C21.2687 18.0081 21.6073 18.0458 21.9584 18.0959C22.0085 18.0959 22.0462 18.0959 22.0963 18.0959C22.2468 18.0959 22.4098 18.1461 22.5227 18.0959C22.924 17.8827 23.3002 17.6319 23.689 17.4062C23.7893 17.3435 23.8771 17.2808 23.9774 17.2181C25.0935 16.566 26.1971 15.9139 27.3132 15.2743C27.9026 15.0486 28.492 14.9733 29.0939 15.2116C29.2695 15.2869 29.4325 15.3872 29.6081 15.4875C29.6332 15.5 29.6457 15.5251 29.6708 15.5377C30.0972 15.7885 30.4608 16.3904 30.3856 16.729C30.3981 16.7416 30.4232 16.7666 30.4357 16.7792C30.5988 16.7039 30.7618 16.6538 30.9123 16.566C31.7525 16.0267 32.6805 16.0518 33.3451 16.5158C33.3577 16.5284 33.3828 16.5534 33.3953 16.566C33.4078 16.5534 33.4204 16.5284 33.4329 16.5158C33.458 16.5409 33.4831 16.566 33.5082 16.5785C33.5332 16.5911 33.5458 16.6161 33.5709 16.6287C34.0976 16.9673 34.3358 17.4814 34.3985 18.0708C34.5114 19.2246 33.9095 19.9645 32.9438 20.4661C32.9188 20.4661 32.8937 20.4661 32.8686 20.4661C32.7808 20.5037 32.6805 20.5288 32.5927 20.5915C32.5049 20.6542 32.4422 20.742 32.3544 20.8172C32.3043 20.8172 32.2541 20.8172 32.204 20.8172C32.1538 20.8799 32.0911 20.9426 32.0409 21.0053C31.7149 21.2185 31.3888 21.4317 31.0628 21.6449C31.0377 21.6449 31.0126 21.6449 30.9875 21.6449C30.8997 21.6825 30.7869 21.7076 30.7116 21.7577C30.6239 21.8204 30.5737 21.9082 30.4985 21.996C30.373 22.0086 30.1599 21.8957 30.21 22.1841C30.1222 22.2343 30.0345 22.2844 29.9467 22.3346C29.9216 22.3346 29.8965 22.3346 29.8714 22.3346C29.7084 22.4475 29.5454 22.5603 29.3823 22.6857C29.3573 22.6857 29.3322 22.6857 29.3071 22.6857C29.2569 22.6983 29.2193 22.7234 29.1692 22.7359C29.1315 22.7861 29.0814 22.8362 29.0438 22.8864C28.8431 22.9867 28.6425 23.087 28.4293 23.1874C28.4042 23.1999 28.3917 23.2124 28.3917 23.2375C28.0154 23.5009 27.6392 23.7768 27.263 24.0401C26.9244 24.2658 26.5858 24.479 26.2347 24.6671C26.034 24.78 25.8083 24.8302 25.5951 24.9179C25.5073 25.0308 25.4321 25.1437 25.3443 25.244C25.2565 25.2942 25.1687 25.3443 25.081 25.3945C24.9932 25.3945 24.8929 25.3945 24.8051 25.3945C24.7173 25.5073 24.617 25.6202 24.5292 25.7331C24.479 25.7205 24.4539 25.7205 24.4414 25.7205ZM23.9523 20.5789C24.7173 20.14 25.4948 19.7011 26.2598 19.2496C27.2254 18.6853 28.1785 18.121 29.1315 17.5441C29.2444 17.4689 29.3949 17.3184 29.3823 17.193C29.3573 16.2901 28.492 15.8637 27.7646 16.2274C27.1 16.5534 26.473 16.9924 25.8334 17.3811C25.0308 17.8577 24.2408 18.3467 23.388 18.8484C23.9022 19.2496 23.7893 19.8014 23.8018 20.3156C23.8018 20.3908 23.8144 20.4786 23.8144 20.5539C23.8269 20.5789 23.8395 20.604 23.852 20.6166C23.8896 20.6166 23.9272 20.5915 23.9523 20.5789ZM18.5223 22.1841C19.5882 22.8989 20.2403 22.9365 21.2185 22.1841C20.3156 22.1841 19.4252 22.1841 18.5223 22.1841Z" fill="white"/>
<path d="M14.5093 3.34831C14.547 3.28561 14.5971 3.2229 14.6347 3.1602C15.2618 2.25729 15.9013 1.36691 16.5284 0.463998C16.6788 0.238269 16.8168 0 17.1428 0C17.193 0 17.2306 0 17.2808 0C17.3937 0.0627024 17.5567 0.100324 17.6194 0.188107C17.9956 0.689726 18.3593 1.19135 18.7229 1.70551C19.0866 2.21966 19.4378 2.74637 19.7889 3.27307C19.8014 3.29815 19.8265 3.32323 19.839 3.34831C20.0773 3.71198 20.303 4.0882 20.5413 4.45187C20.6166 4.58982 20.6793 4.72776 20.7545 4.86571C20.9551 5.21684 21.1683 5.56797 21.369 5.91911C21.5069 6.195 21.6449 6.47089 21.7828 6.75932C21.8079 6.80948 21.8204 6.85964 21.8455 6.9098C22.2217 7.75002 22.598 8.60277 22.7108 9.53077C22.7108 9.85682 22.7108 10.1829 22.7108 10.5089C22.6857 10.7221 22.6607 10.9228 22.6356 11.1359C22.5729 11.3491 22.4976 11.5498 22.4349 11.763C22.3597 11.9762 22.2844 12.1768 22.2092 12.39C22.134 12.5279 22.0713 12.6659 21.996 12.8038C21.7954 13.0797 21.5822 13.3556 21.3815 13.6315C21.1934 13.7945 21.0179 13.9576 20.8297 14.1206C20.8172 14.108 20.8047 14.0955 20.7921 14.083C20.7796 14.1206 20.7796 14.1582 20.767 14.1958C20.5288 14.3839 20.303 14.5595 20.0648 14.7476C19.9268 14.8228 19.7889 14.8981 19.6509 14.9733C19.4879 15.0235 19.3249 15.0737 19.1619 15.1113C19.1117 15.1489 19.0615 15.1865 19.0114 15.2367C18.8107 15.2994 18.5975 15.3746 18.3969 15.4373C18.1837 15.4624 17.9831 15.5 17.7699 15.5251C17.3811 15.5251 16.9798 15.5251 16.5911 15.5251C16.403 15.5 16.2148 15.475 16.0393 15.4499C15.8261 15.3746 15.6254 15.3119 15.4123 15.2367C15.2241 15.1614 15.0486 15.0862 14.8605 15.011C14.6975 14.9232 14.5344 14.8354 14.3714 14.7476C13.5437 14.1958 12.854 13.5186 12.3398 12.6533C12.2771 12.553 12.2144 12.4652 12.1517 12.3649C12.0765 12.1768 12.0012 11.9887 11.926 11.7881C11.8508 11.5372 11.7881 11.2864 11.7128 11.0482C11.6877 10.8851 11.6627 10.7221 11.6376 10.5591C11.6376 10.208 11.6376 9.86936 11.6376 9.51822C11.7003 9.26742 11.7379 8.99152 11.8257 8.75326C12.0514 8.10115 12.3148 7.46159 12.553 6.82202C12.7161 6.52105 12.8665 6.22008 13.0296 5.91911C13.2428 5.53035 13.4559 5.12906 13.6817 4.7403C13.7193 4.65252 13.7695 4.56473 13.8071 4.47695C13.8322 4.45187 13.8698 4.41425 13.8949 4.38917C13.9325 4.36409 13.9576 4.33901 13.9952 4.32647C13.9576 4.30138 13.9325 4.2763 13.8949 4.25122C13.945 4.17598 13.9952 4.11328 14.0453 4.03803C14.2084 3.81231 14.3589 3.58658 14.5093 3.34831ZM15.5502 3.90009C15.3621 3.90009 15.2743 4.00041 15.2869 4.18852C15.1991 4.36409 15.1113 4.53965 14.9984 4.70268C14.7978 5.01619 14.5846 5.3297 14.3839 5.64322C14.3839 5.69338 14.3839 5.731 14.3839 5.78116C14.0955 6.33294 13.8196 6.88472 13.5312 7.43651C13.5186 7.46159 13.4936 7.48667 13.481 7.51175C13.3807 7.7751 13.2804 8.05099 13.1801 8.31434C13.0421 8.67801 12.8289 9.02915 12.7788 9.40536C12.6534 10.3459 12.8289 11.2488 13.2804 12.089C13.8196 13.0923 14.6724 13.7318 15.6881 14.1707C16.3403 14.4592 17.0676 14.4341 17.7699 14.3839C18.1085 14.3588 18.4847 14.3087 18.7731 14.1457C19.4378 13.7945 20.0773 13.4058 20.5664 12.8038C21.4568 11.6877 21.8706 10.4588 21.4693 9.02915C21.1182 7.80018 20.5037 6.69662 19.8892 5.59305C19.6008 5.07889 19.2873 4.58982 18.9612 4.0882C18.4721 3.33577 17.958 2.60842 17.5065 1.84345C17.3435 1.56756 17.2055 1.49232 16.9297 1.63026C16.9171 1.63026 16.892 1.63026 16.8795 1.6428C16.892 1.65534 16.9171 1.68042 16.9297 1.69296C16.9297 1.71805 16.9297 1.73059 16.9297 1.75567C16.9046 1.80583 16.892 1.85599 16.867 1.89361C16.7415 2.06918 16.6161 2.25729 16.4907 2.43285C16.1772 2.92193 15.8637 3.41101 15.5502 3.90009Z" fill="white"/>
<path d="M17.1804 1.06592L21.2185 6.50849L22.3847 10.2205C22.3847 10.2205 22.2092 12.4025 21.6323 12.8414C21.0429 13.2929 18.5223 15.0109 18.5223 15.0109H15.7383L12.7536 12.2019L12.2144 9.12945L15.7383 2.34505L17.1804 1.06592Z" fill="white"/>
</svg>
