<svg width="29" height="35" viewBox="0 0 29 35" fill="none" xmlns="http://www.w3.org/2000/svg">
<path d="M18.7701 17.4863C18.3584 17.5469 18.2253 17.2563 18.1526 17.0021C17.5836 17.3653 17.0387 17.7043 16.4939 18.0554C16.2638 17.9101 16.4091 18.1644 16.3486 18.1886C16.2396 18.2128 16.1186 18.2491 16.0096 18.2733C15.9491 18.2976 15.8764 18.3097 15.8159 18.3339C15.0652 18.6729 14.2903 18.7576 13.4912 18.5276C13.1643 18.4307 12.8253 18.3944 12.5226 18.2612C11.8688 17.9949 11.2756 17.6316 10.7671 17.1231C10.7065 17.0626 10.5854 17.0505 10.4886 17.0263C10.4523 17.111 10.428 17.2079 10.3917 17.2926C10.3312 17.3168 10.2828 17.3532 10.2222 17.3774C9.84688 17.22 9.7137 17.2684 9.66527 17.5711C9.56841 17.5953 9.48366 17.6195 9.3868 17.6437C9.25362 17.4258 8.49085 17.2563 8.29713 17.4016C8.28502 17.4016 8.29712 17.4258 8.28502 17.4379C7.14691 16.8689 6.26307 16.0456 5.60926 14.968C5.56083 14.8711 5.51241 14.7864 5.47608 14.6895C5.06443 13.8178 5.016 12.8855 5.05232 11.9411C5.06443 11.7353 5.08864 11.5174 5.11286 11.3115C5.1855 10.9725 5.24604 10.6214 5.31869 10.2824C5.36712 10.0766 5.41555 9.87074 5.45187 9.66492C5.47608 9.56806 5.5003 9.48331 5.52451 9.38645C5.71823 9.16851 5.75456 8.90215 5.75456 8.63578C5.8272 8.42995 5.88774 8.22413 5.96038 8.0183C6.10567 7.66718 6.23885 7.32817 6.38414 6.97706C6.39625 6.95284 6.42047 6.92863 6.43257 6.90441C6.57786 6.58962 6.72315 6.26272 6.85634 5.94792C6.86844 5.92371 6.89266 5.89949 6.90477 5.87528C7.20745 5.34255 7.46171 4.7856 7.81283 4.3013C8.39399 3.51432 9.03568 2.77576 9.65316 2.0251C9.67738 2.01299 9.70159 1.98878 9.72581 1.97667C10.5007 1.226 11.3724 0.644845 12.4016 0.317943C12.8495 0.172654 13.3338 0.0879013 13.806 0.0394714C14.363 -0.00895851 14.932 -0.0210661 15.489 0.0515788C15.8643 0.100009 16.2275 0.269513 16.5665 0.439018C17.1477 0.741705 17.7046 1.08071 18.2616 1.40762C18.2858 1.41972 18.31 1.44394 18.3342 1.45605C19.9808 2.78787 21.1311 4.49502 21.9907 6.40801C22.4266 7.3766 22.7413 8.40574 23.1046 9.39855C23.153 9.58016 23.2014 9.76178 23.2378 9.9555C23.3346 10.5003 23.4557 11.0452 23.5162 11.59C23.5768 12.1106 23.6252 12.6434 23.5525 13.1519C23.4678 13.733 23.3104 14.3142 23.0804 14.8469C22.6445 15.8397 21.9544 16.6388 20.9615 17.1231C20.9373 17.1473 20.9131 17.1594 20.8889 17.1837C20.6831 17.3168 20.4651 17.45 20.2593 17.5953C19.8234 17.9222 19.3876 17.668 18.9638 17.5832C18.9396 17.5227 18.9033 17.4621 18.8791 17.4016C18.8427 17.4137 18.8064 17.45 18.7701 17.4863ZM14.9078 10.0524C14.7988 9.97971 14.6778 9.91917 14.5688 9.84653C14.5204 9.7981 14.4719 9.74967 14.4235 9.71335C14.3024 9.61649 14.1935 9.50752 14.0724 9.41066C13.806 9.19273 13.5276 8.96268 13.2491 8.74475C13.1522 8.64789 13.0675 8.56314 12.9706 8.46628C12.6437 8.13937 12.3289 7.82458 12.002 7.49768C11.9294 7.42503 11.8688 7.3645 11.7962 7.29185C11.4935 6.94073 11.1908 6.60173 10.9002 6.25061C10.876 6.22639 10.8639 6.21429 10.8397 6.19007C10.7428 6.12953 10.646 6.05689 10.5491 5.99635C10.5249 6.02057 10.5128 6.03267 10.4886 6.05689C10.4765 6.0811 10.4765 6.10532 10.4644 6.11743C10.3796 6.29904 10.2828 6.48065 10.198 6.66226C10.089 6.90441 9.94374 7.13445 9.85899 7.38871C9.68949 7.92144 9.5442 8.47838 9.3868 9.01111C9.36258 9.10797 9.33837 9.19273 9.31415 9.28959C9.28994 9.39855 9.28994 9.53174 9.2294 9.6286C9.16886 9.71335 9.0599 9.76178 8.96304 9.83442C8.91461 9.82231 8.86618 9.7981 8.81775 9.78599C8.66035 9.78599 8.49084 9.78599 8.33345 9.78599C8.0913 9.77388 7.90969 9.85864 7.84915 10.1129C7.80072 10.1734 7.74018 10.234 7.72807 10.2945C7.53435 11.0331 7.70386 11.7111 8.13973 12.3286C8.34556 12.5707 8.55138 12.825 8.75721 13.0671C9.02357 13.1882 9.28994 13.3577 9.56841 13.4061C9.78635 13.4425 9.85899 13.5393 9.93164 13.7209C10.089 14.0963 10.2949 14.4474 10.4765 14.8106C10.5007 14.859 10.537 14.9075 10.5612 14.9559C10.5612 14.9801 10.5612 15.0043 10.5733 15.0406C10.6581 15.1496 10.7428 15.2586 10.8276 15.3675C11.3361 16.2151 12.0626 16.8083 12.9706 17.2079C13.0796 17.2563 13.2007 17.3047 13.3096 17.3411C13.9997 17.5469 14.702 17.559 15.38 17.2926C15.4526 17.2442 15.5132 17.2079 15.5858 17.1594C15.5979 17.1594 15.6221 17.1594 15.6343 17.1473C15.6464 17.1594 15.6585 17.1837 15.6706 17.1958C15.6948 17.1837 15.7069 17.1594 15.7311 17.1473C16.0822 16.9415 16.4697 16.7841 16.7603 16.5178C17.1719 16.1545 17.4988 15.7066 17.8741 15.2949C17.9226 15.2223 17.9589 15.1496 18.0073 15.0891C18.0558 15.0164 18.1042 14.9559 18.1526 14.8832C18.1768 14.8348 18.201 14.7864 18.2253 14.7501C18.3221 14.5563 18.4311 14.3747 18.5279 14.181C18.5643 14.0963 18.6127 13.9994 18.649 13.9146C18.6611 13.8783 18.6732 13.8541 18.6853 13.8178C18.7217 13.733 18.7459 13.6483 18.7822 13.5635C18.8548 13.5151 18.9275 13.4546 19.0122 13.4303C19.2302 13.3577 19.4723 13.3214 19.666 13.2124C20.562 12.716 21.0947 11.4931 20.9737 10.4882C20.9373 10.1371 20.6589 9.7981 20.4046 9.78599C20.1019 9.77388 19.7871 9.81021 19.5086 9.82232C19.4481 10.4035 19.3997 10.9241 19.327 11.4326C19.3149 11.5053 19.206 11.6263 19.1212 11.6263C18.867 11.6505 18.6248 11.6263 18.3705 11.6263C18.3221 11.6142 18.2737 11.59 18.2253 11.5779C18.0558 11.5295 17.8741 11.5053 17.7167 11.4326C17.0629 11.1541 16.4091 10.8757 15.7432 10.5851C15.6948 10.5609 15.6464 10.5367 15.61 10.5124C15.489 10.4277 15.38 10.3429 15.2589 10.2582C15.1379 10.2098 15.0289 10.1371 14.9078 10.0524Z" fill="white"/>
<path d="M25.7924 21.5667C25.9377 21.7241 26.0708 21.8936 26.2161 22.051C26.1314 22.3295 26.2282 22.4869 26.4825 22.4626C26.7004 22.8864 26.9184 23.3102 27.1484 23.7339C27.1847 23.8187 27.2211 23.9034 27.2574 23.9882C27.9112 25.6348 28.3228 27.342 28.5408 29.0975C28.5045 29.1823 28.456 29.2549 28.4197 29.3397C28.5045 29.376 28.5892 29.4123 28.674 29.4487C28.7466 29.7756 28.7224 30.0419 28.4802 30.3204C27.9112 30.9863 27.1242 31.3011 26.3493 31.628C26.1072 31.737 25.7924 31.7007 25.5139 31.7249C25.526 31.519 25.4897 31.3495 25.2233 31.3738C25.2233 31.1921 25.2233 31.0105 25.2233 30.8289C25.4292 30.6957 25.3807 30.611 25.1749 30.5504C25.1507 30.3567 25.1265 30.1751 25.0901 29.9814C25.0659 29.9693 25.0538 29.9451 25.0296 29.933C25.0538 29.7877 25.0901 29.6545 25.078 29.5092C25.0175 28.7949 24.9449 28.0805 24.8843 27.3541C24.8722 27.2209 24.8964 27.0756 24.8843 26.9424C24.848 26.4581 24.8117 25.9617 24.739 25.4774C24.7027 25.1626 24.3758 24.9568 24.0247 25.0415C23.7704 25.1021 23.613 25.2958 23.6372 25.5864C23.7099 26.3976 23.7825 27.1967 23.8431 28.0079C23.8915 28.6859 23.9278 29.376 23.9884 30.054C24.0247 30.4899 24.0852 30.9258 24.1215 31.3616C24.1336 31.4706 24.1215 31.6038 24.0489 31.6764C23.8552 31.8944 23.6372 32.076 23.4314 32.2818C23.4193 32.2939 23.3951 32.3181 23.383 32.3302C23.2619 32.4271 23.1408 32.524 23.0198 32.6087C22.7655 32.4392 22.6565 32.524 22.6686 32.8145C22.5718 32.863 22.487 32.9114 22.3902 32.9598C22.3175 32.9114 22.1843 32.8267 22.1843 32.8388C22.0269 33.0325 21.6395 32.9235 21.6274 33.2867C21.2642 33.4078 20.8888 33.5289 20.5256 33.65C20.3561 33.6136 20.1866 33.5531 20.0292 33.5652C19.9566 33.5773 19.896 33.7468 19.8355 33.8437C19.7386 33.8558 19.6539 33.8558 19.557 33.8679C19.4844 33.8195 19.4238 33.771 19.3512 33.7226C19.3028 33.7952 19.2664 33.8679 19.218 33.9284C18.7337 34.0132 18.2494 34.0979 17.7651 34.1827C17.6077 33.9163 17.5472 34.0979 17.4866 34.2553C17.0992 34.2796 16.6997 34.3038 16.3122 34.328C16.2759 34.2917 16.2517 34.2553 16.2154 34.219C16.179 34.2674 16.1427 34.3038 16.1064 34.3522C15.9006 34.3522 15.7068 34.3522 15.4647 34.3522C15.4647 34.2432 15.4647 34.1343 15.4647 34.0253C15.4647 32.8751 15.4405 31.737 15.4768 30.5868C15.4889 30.0419 15.3678 29.5455 15.1983 29.037C15.2468 28.9644 15.2952 28.8917 15.3436 28.8191C15.2468 28.7828 15.162 28.7343 15.0651 28.698C14.9925 28.4922 14.9199 28.2863 14.8593 28.0805C14.9078 27.9958 15.0167 27.8626 14.9925 27.8384C14.9199 27.7415 14.7867 27.6689 14.6898 27.5962C14.593 27.3662 14.4961 27.1361 14.4235 26.894C14.3992 26.8334 14.4477 26.7608 14.4598 26.7003C14.6898 26.7366 14.8351 26.6397 14.8593 26.4097C14.8714 26.3491 14.7504 26.2765 14.6777 26.216C14.8835 25.7801 15.0894 25.3442 15.2952 24.9084C15.3194 24.9084 15.3315 24.9084 15.3557 24.9084C15.4526 24.8841 15.6221 24.872 15.6221 24.8357C15.6342 24.6541 15.61 24.4846 15.5979 24.303C15.6584 24.1819 15.7068 24.0487 15.7674 23.9277C15.7916 23.8671 15.8279 23.8066 15.8521 23.7339C15.9611 23.5281 16.0701 23.3102 16.1911 23.1043C16.4454 23.3102 16.4817 23.0559 16.5544 22.9227C16.627 22.7774 16.6391 22.6322 16.4091 22.6322C16.6391 22.1721 16.8571 21.712 17.0871 21.2519C17.3414 21.4577 17.3777 21.2035 17.4624 21.0703C17.5351 20.925 17.5472 20.7797 17.3171 20.7797C17.523 20.3681 17.7167 19.9443 17.9225 19.5326C18.1889 19.7143 18.2252 19.46 18.2978 19.3147C18.3826 19.1694 18.3463 19.0483 18.1404 19.0483C18.1768 18.9757 18.2252 18.903 18.2615 18.8425C18.4068 18.8062 18.54 18.7578 18.6853 18.7214C18.879 18.7699 19.0727 18.8183 19.2786 18.8667C19.2786 20.3802 19.2785 21.8815 19.2664 23.3828C19.2664 23.4797 19.0727 23.5765 18.9638 23.6734C18.8911 23.746 18.8185 23.8187 18.7579 23.8792C18.6611 24.194 18.5642 24.5209 18.4673 24.8357C18.431 24.9084 18.3584 24.9931 18.3584 25.0658C18.3584 25.1021 18.4795 25.1384 18.5521 25.1747C18.7821 25.5985 19.0606 26.0101 19.5933 26.0344C19.9081 26.0465 20.235 25.9254 20.5498 25.8527C20.6104 25.9012 20.6709 25.9375 20.7436 25.9859C20.7436 25.9859 20.792 25.9254 20.8162 25.8891C20.7557 25.8527 20.6951 25.8164 20.6346 25.768C20.7678 25.6106 20.901 25.4532 21.0341 25.3079C21.2763 25.3321 21.361 25.1626 21.3731 24.981C21.3731 24.9084 21.24 24.8357 21.1673 24.7631C21.1915 24.2788 20.9494 23.9155 20.6104 23.6008C20.6588 23.5523 20.6951 23.5039 20.7436 23.4555C20.6467 23.4312 20.5498 23.407 20.4409 23.3828C20.4409 21.9662 20.4409 20.5497 20.4409 19.0968C20.7193 19.1694 20.9857 19.2421 21.24 19.3147C21.2763 19.3873 21.3126 19.5084 21.3489 19.5084C21.4216 19.5084 21.5063 19.4358 21.579 19.3995C21.8574 19.4842 22.1359 19.569 22.4144 19.6658C22.4265 19.7264 22.4507 19.799 22.4628 19.8595C22.5597 19.8232 22.6565 19.7869 22.7534 19.7506C23.1651 19.9322 23.5888 20.1138 24.0005 20.2833C23.9884 20.3196 23.9763 20.3559 23.9641 20.3923C24.0005 20.3681 24.0247 20.3317 24.061 20.3075C24.1821 20.3681 24.291 20.4286 24.4121 20.5012C24.4242 20.7434 24.4969 20.8645 24.7511 20.695C24.7753 20.7192 24.7996 20.7434 24.8238 20.7676C24.8238 20.9492 24.8117 21.1793 25.1022 20.9734C25.1991 21.0461 25.2839 21.1187 25.3807 21.1914C25.3444 21.2277 25.3081 21.2519 25.2596 21.2882C25.3686 21.3245 25.4776 21.3609 25.5865 21.3972C25.5987 21.4819 25.6108 21.5788 25.6229 21.6636C25.6834 21.603 25.7439 21.5788 25.7924 21.5667Z" fill="white"/>
<path d="M10.428 19.0238C10.5006 19.2296 10.5733 19.4355 10.6459 19.6413C10.6823 19.7139 10.7307 19.7866 10.767 19.8592C10.8518 20.1377 10.9486 20.4041 11.0334 20.6825C10.8275 20.9005 10.8639 21.0216 11.1908 21.1668C11.2634 21.3727 11.3361 21.5785 11.4087 21.7843C11.445 21.857 11.4935 21.9296 11.5298 22.0023C11.6145 22.2807 11.7114 22.5471 11.7961 22.8256C11.5903 23.0435 11.6266 23.1646 11.9535 23.3099C12.0262 23.5157 12.0988 23.7215 12.1715 23.9274C12.1836 23.9758 12.2078 24.0242 12.2199 24.0726C12.3289 24.3753 12.4499 24.6659 12.5589 24.9686C12.3531 25.1865 12.3894 25.3076 12.7163 25.4529C12.8011 25.6829 12.8858 25.913 12.9706 26.143C12.9342 26.2157 12.8979 26.2883 12.8616 26.361C12.9221 26.3731 12.9948 26.3973 13.0553 26.4094C13.1037 26.482 13.1522 26.5668 13.1885 26.6394C13.2006 26.6515 13.2248 26.6757 13.2369 26.6879C13.249 26.7968 13.249 26.9179 13.2611 27.0269C13.2127 27.1964 13.0311 27.4143 13.4064 27.4385C13.4791 27.5596 13.5396 27.6807 13.6123 27.8017C13.6244 27.8139 13.6486 27.8381 13.6607 27.8502C13.6728 27.9591 13.6728 28.0802 13.6849 28.1892C13.5517 28.3708 13.588 28.4919 13.8181 28.5403C13.8907 28.7461 13.9513 28.952 14.0239 29.1578C13.9755 29.3273 13.7939 29.5452 14.1692 29.5694C14.2297 29.7753 14.3508 29.9811 14.3629 30.1869C14.375 31.4824 14.3629 32.7658 14.375 34.0613C14.375 34.3035 14.3266 34.4124 14.0481 34.4003C13.5759 34.3761 13.1159 34.3882 12.6437 34.3882C12.5952 34.3035 12.5468 34.2187 12.4863 34.134C12.4257 34.1945 12.3652 34.255 12.2925 34.3156C12.1351 34.3156 11.9656 34.3156 11.8082 34.3156C11.7477 34.2308 11.6993 34.1461 11.6387 34.0492C11.5782 34.134 11.5298 34.2187 11.4692 34.3156C11.0576 34.2429 10.6459 34.1824 10.2343 34.1097C10.1858 34.025 10.1374 33.9402 10.1011 33.8434C10.0284 33.9039 9.96791 33.9766 9.89527 34.0371C9.55626 33.9645 9.20514 33.9039 8.86613 33.8313C8.89034 33.5528 8.6603 33.5407 8.47869 33.5165C8.40605 33.5044 8.32129 33.6254 8.23654 33.6981C8.20022 33.6981 8.176 33.6981 8.13968 33.6981C7.76435 33.5649 7.38902 33.4196 7.01368 33.2864C6.98947 33.2259 6.95315 33.1654 6.92893 33.1048C6.89261 33.1411 6.84418 33.1775 6.80786 33.2259C6.3962 33.0201 5.98455 32.8142 5.56079 32.5963C5.53657 32.5842 5.51236 32.56 5.47603 32.5479C5.36707 32.4752 5.2581 32.3905 5.14913 32.3178C4.48322 31.8941 4.50744 31.2645 4.62851 30.5986C4.68905 30.2838 4.70116 29.9448 4.72537 29.6179C4.7738 28.8793 4.81012 28.1529 4.87066 27.4143C4.90698 26.7968 4.96752 26.1793 5.00384 25.5498C5.01595 25.3439 5.01595 25.126 4.76169 25.1018C4.54376 25.0776 4.30161 25.0776 4.10789 25.1623C3.95049 25.235 3.84152 25.4287 3.97471 25.6466C3.99892 25.6829 3.99892 25.7677 3.97471 25.8161C3.8052 26.0946 3.84152 26.3852 3.90206 26.6879C3.87785 26.7363 3.86574 26.7847 3.84152 26.821C3.81731 26.8816 3.78099 26.9421 3.78099 27.0027C3.73256 27.6201 3.68413 28.2376 3.6357 28.843C3.56305 29.7026 3.50252 30.5623 3.42987 31.4219C3.40566 31.6519 3.3209 31.7367 3.05454 31.7125C2.38863 31.6519 1.79536 31.4098 1.22631 31.0708C1.18999 30.9739 1.16577 30.8649 1.12945 30.7681C1.06891 30.8044 1.00837 30.8407 0.947837 30.8892C0.633042 30.6107 0.294033 30.3564 0.0397754 30.0416C-0.0570844 29.9206 0.051883 29.6421 0.0639905 29.4363C0.148743 29.3878 0.233496 29.3273 0.318248 29.2789C0.25771 29.2183 0.197173 29.1578 0.136636 29.0851C0.148743 28.9035 0.172958 28.7219 0.185065 28.5403C0.20928 28.4919 0.233496 28.4434 0.25771 28.395C0.25771 28.3708 0.269818 28.3466 0.269818 28.3345C0.35457 28.286 0.439323 28.2376 0.536182 28.2013C0.475645 28.1286 0.403 28.0681 0.342462 27.9955C0.390892 27.7654 0.439322 27.5354 0.487752 27.3053C0.572505 27.2569 0.657257 27.1964 0.74201 27.1479C0.681472 27.0874 0.620935 27.0269 0.560398 26.9542C0.560398 26.93 0.560398 26.9058 0.560398 26.8816C0.59672 26.8089 0.64515 26.7484 0.681472 26.6758C0.935729 26.591 1.12945 25.9856 0.959944 25.804C0.935729 25.7798 0.875192 25.7798 0.826762 25.7798C1.03259 25.1865 1.22631 24.5812 1.43214 23.9879C1.51689 23.9879 1.58953 23.9758 1.67429 23.9758C1.63796 23.891 1.60164 23.8063 1.56532 23.7094C1.81958 23.2493 2.07383 22.7892 2.31598 22.3292C2.44916 22.3292 2.61867 22.3413 2.46127 22.1233C2.57024 21.9902 2.69131 21.8449 2.80028 21.7117C2.89714 21.7117 3.00611 21.7117 3.10297 21.7117C3.10297 21.5906 3.10297 21.4574 3.09086 21.3364C3.09086 21.3242 3.10297 21.3121 3.12718 21.3C3.21194 21.3 3.28458 21.3 3.36933 21.2879C3.35723 21.2153 3.35723 21.1547 3.34512 21.0821C3.41776 21.0337 3.49041 20.9852 3.56305 20.9368C3.88995 21.07 3.90206 21.0579 3.90206 20.6583C3.95049 20.6341 3.99892 20.6099 4.03524 20.5857C4.05946 20.6341 4.07157 20.7189 4.09578 20.731C4.37425 20.7673 4.31372 20.5615 4.31372 20.4041C4.38636 20.3678 4.4469 20.3435 4.51954 20.3072C4.58008 20.3556 4.64062 20.392 4.71326 20.4404C4.73748 20.3556 4.7738 20.2588 4.79802 20.174C4.82223 20.1619 4.84645 20.1377 4.87066 20.1256C4.89488 20.1014 4.9312 20.0772 4.95541 20.0409C4.99173 20.0166 5.04016 20.0045 5.07649 19.9803C5.37917 19.8835 5.66975 19.7987 5.97244 19.7018C6.17827 19.8956 6.23881 19.8713 6.31145 19.5687C6.61414 19.496 6.90472 19.4234 7.2074 19.3386C7.25583 19.387 7.30426 19.4234 7.35269 19.4718C7.40112 19.387 7.43745 19.3144 7.48588 19.2297C7.66749 19.2054 7.8491 19.1812 8.03071 19.157C8.11547 19.2418 8.20022 19.3386 8.28497 19.4234C8.28497 20.6462 8.28497 21.857 8.28497 23.1162C7.98228 23.1888 7.65538 23.2735 7.34059 23.3583C7.15897 23.213 7.13476 23.322 7.13476 23.4794C7.08633 23.5036 7.0379 23.5278 7.00158 23.5399C6.95315 23.5036 6.91682 23.4673 6.86839 23.4309C6.81996 23.5157 6.77153 23.6126 6.73521 23.6973C6.60203 23.8305 6.46885 23.9758 6.32356 24.109C6.23881 24.1332 6.14195 24.1574 6.05719 24.1816C6.09352 24.2421 6.12984 24.3148 6.16616 24.3753C6.12984 24.4238 6.09352 24.4722 6.04509 24.5206C6.02087 24.569 5.99666 24.6175 5.97244 24.6538C5.8998 24.9565 5.82715 25.2471 5.75451 25.5498C5.70608 25.5982 5.66975 25.6345 5.62132 25.6829C5.53657 25.8282 5.53657 25.9372 5.7424 25.9735C5.7424 26.5062 5.7424 27.0269 5.7424 27.5596C5.68186 27.5959 5.63343 27.6443 5.57289 27.6807C5.63343 27.7291 5.69397 27.7896 5.7424 27.8381C5.83926 28.2376 6.11773 28.3829 6.51728 28.2618C6.61414 28.2982 6.75943 28.395 6.80786 28.3587C6.91682 28.286 7.00158 28.1408 7.05001 28.0197C7.06211 27.9834 6.95315 27.8986 6.89261 27.826C6.8805 27.1116 6.86839 26.3852 6.86839 25.6708C6.86839 25.6103 6.91682 25.5498 6.95315 25.4892C7.24373 25.4166 7.38902 25.1381 7.28005 24.8596C7.35269 24.787 7.42534 24.7143 7.48588 24.6538C7.77646 24.7628 8.06704 24.6054 8.11547 24.3269C8.57555 24.3148 9.03563 24.3148 9.49572 24.3148C9.54415 24.3148 9.59258 24.3511 9.6289 24.3753C9.72576 24.5812 9.85894 24.7143 10.1132 24.5812C10.4522 24.7628 10.5854 25.0533 10.7065 25.4166C10.9849 26.2641 10.7428 27.1237 10.876 27.9591C10.9244 28.0076 10.9607 28.056 11.0092 28.1044C11.3966 28.3829 11.9535 28.1771 11.9656 27.7049C11.9899 26.9663 11.9293 26.2278 11.9051 25.5013C11.9051 25.4045 11.9414 25.3076 11.9535 25.2107C11.9293 25.1744 11.9172 25.126 11.893 25.0897C11.7598 24.8112 11.6145 24.5327 11.4813 24.2664C11.4935 23.7215 11.3239 23.552 10.9365 23.7094C10.8881 23.6852 10.8518 23.6489 10.8033 23.6247C10.7428 23.4915 10.6823 23.3583 10.5975 23.2493C10.5854 23.2251 10.4159 23.3341 10.319 23.3704C10.0648 23.322 9.82262 23.2857 9.58047 23.213C9.51993 23.2009 9.4594 23.0798 9.4594 23.0072C9.44729 21.6633 9.44729 20.3072 9.4715 18.9633C9.4715 18.8664 9.71365 18.7817 9.84684 18.6848C10.0163 18.7938 10.2222 18.9027 10.428 19.0238Z" fill="white"/>
<path d="M8.28497 17.426C8.28497 17.4139 8.28497 17.4017 8.29708 17.3896C8.4908 17.2443 9.25357 17.4017 9.38675 17.6318C9.25357 17.656 9.10828 17.6802 8.9751 17.7044C8.92667 17.6923 8.87824 17.6802 8.82981 17.656C8.66031 17.5834 8.46659 17.4986 8.28497 17.426Z" fill="white"/>
<path d="M0.790475 25.78C0.838905 25.7921 0.899442 25.78 0.923657 25.8042C1.09316 25.9859 0.899442 26.5912 0.645185 26.676C0.62097 26.676 0.596755 26.676 0.57254 26.676C0.633078 26.3733 0.71783 26.0706 0.790475 25.78Z" fill="white"/>
<path d="M6.86834 27.8381C6.92888 27.8987 7.03785 27.9955 7.02574 28.0319C6.97731 28.165 6.89256 28.2982 6.78359 28.3709C6.73516 28.4072 6.58987 28.3103 6.49301 28.274C6.62619 28.1287 6.74727 27.9834 6.86834 27.8381Z" fill="white"/>
<path d="M10.9001 23.7095C11.2997 23.5521 11.4571 23.7216 11.445 24.2664C11.2754 24.0848 11.0938 23.9032 10.9001 23.7095Z" fill="white"/>
<path d="M21.6638 33.2745C21.6638 32.9112 22.0633 33.0202 22.2207 32.8265C22.2328 32.8144 22.3539 32.9112 22.4265 32.9476C22.1723 33.0565 21.918 33.1655 21.6638 33.2745Z" fill="white"/>
<path d="M17.3293 20.7433C17.5714 20.7433 17.5593 20.8886 17.4746 21.0339C17.4019 21.1792 17.3656 21.4213 17.0992 21.2155C17.184 21.0581 17.2566 20.9007 17.3293 20.7433Z" fill="white"/>
<path d="M19.8718 33.8312C19.9323 33.7343 19.9929 33.5648 20.0655 33.5527C20.2229 33.5406 20.4045 33.6012 20.5619 33.6375C20.3319 33.698 20.1018 33.7707 19.8718 33.8312Z" fill="white"/>
<path d="M16.4333 22.6079C16.6755 22.6079 16.6634 22.7532 16.5786 22.8985C16.506 23.0438 16.4696 23.2859 16.2154 23.0801C16.288 22.9227 16.3607 22.7653 16.4333 22.6079Z" fill="white"/>
<path d="M8.21237 33.6861C8.29712 33.6256 8.38188 33.5045 8.45452 33.5045C8.62403 33.5287 8.86618 33.5408 8.84196 33.8193C8.63613 33.783 8.4182 33.7346 8.21237 33.6861Z" fill="white"/>
<path d="M18.1526 19.0239C18.3584 19.0239 18.3948 19.145 18.31 19.2903C18.2374 19.4235 18.201 19.6898 17.9347 19.5082C17.9347 19.484 17.9347 19.4598 17.9468 19.4477C17.9589 19.4235 17.9831 19.3993 17.9952 19.375C18.0558 19.2419 18.1042 19.1329 18.1526 19.0239Z" fill="white"/>
<path d="M15.6222 24.2788C15.6343 24.4604 15.6585 24.642 15.6464 24.8115C15.6464 24.8358 15.4769 24.86 15.38 24.8842C15.38 24.86 15.38 24.8358 15.38 24.8115C15.4648 24.6299 15.5495 24.4483 15.6222 24.2788Z" fill="white"/>
<path d="M10.428 19.0238C10.2222 18.9149 10.0164 18.8059 9.79845 18.6969C9.82266 18.6969 9.84688 18.6969 9.85898 18.6848C10.2343 18.5032 10.3917 18.6485 10.428 19.0238Z" fill="white"/>
<path d="M14.7141 26.1914C14.7747 26.2519 14.8957 26.3246 14.8957 26.3851C14.8715 26.6031 14.7262 26.712 14.4962 26.6757C14.5567 26.5062 14.6294 26.3488 14.7141 26.1914Z" fill="white"/>
<path d="M7.24366 24.8719C7.35263 25.1504 7.20734 25.4168 6.91676 25.5015C7.02573 25.2957 7.1347 25.0899 7.24366 24.8719Z" fill="white"/>
<path d="M8.07907 24.3394C8.04274 24.6178 7.74006 24.7752 7.44948 24.6663C7.66741 24.5573 7.87324 24.4483 8.07907 24.3394Z" fill="white"/>
<path d="M21.1674 24.7388C21.2401 24.8114 21.3732 24.8841 21.3732 24.9567C21.3611 25.1504 21.2764 25.3078 21.0342 25.2836C21.0584 25.1989 21.0827 25.102 21.1069 25.0172C21.1432 24.9567 21.1916 24.9083 21.2522 24.8235C21.1553 24.8114 21.1069 24.8114 21.0584 24.7993C21.0948 24.7872 21.1311 24.763 21.1674 24.7388Z" fill="white"/>
<path d="M14.7141 27.5718C14.823 27.6565 14.9441 27.7171 15.0167 27.8139C15.041 27.8381 14.932 27.9713 14.8836 28.0561C14.8351 27.8866 14.7746 27.7292 14.7141 27.5718Z" fill="white"/>
<path d="M10.2827 23.3706C10.3796 23.3222 10.537 23.2253 10.5612 23.2496C10.6459 23.3585 10.7065 23.5038 10.767 23.6249C10.6096 23.5401 10.4401 23.4554 10.2827 23.3706Z" fill="white"/>
<path d="M9.66527 17.559C9.7137 17.2564 9.83477 17.2079 10.2222 17.3653C10.0406 17.438 9.84688 17.4985 9.66527 17.559Z" fill="white"/>
<path d="M3.05445 21.3365C3.05445 21.4576 3.05445 21.5908 3.06656 21.7119C2.9697 21.7119 2.86073 21.7119 2.76387 21.7119C2.86073 21.5787 2.95759 21.4576 3.05445 21.3365Z" fill="white"/>
<path d="M25.2355 31.3617C25.5019 31.3375 25.5382 31.5191 25.5261 31.7128C25.4777 31.7249 25.4293 31.7491 25.3808 31.7612C25.3203 31.7007 25.2476 31.628 25.1871 31.5675C25.1992 31.4949 25.2234 31.4222 25.2355 31.3617Z" fill="white"/>
<path d="M11.457 34.316C11.5176 34.2313 11.566 34.1465 11.6266 34.0497C11.6871 34.1344 11.7355 34.2192 11.7961 34.316C11.6871 34.316 11.5781 34.316 11.457 34.316Z" fill="white"/>
<path d="M3.87792 20.6707C3.87792 21.0702 3.8537 21.0823 3.53891 20.9491C3.64788 20.8523 3.75684 20.7554 3.87792 20.6707Z" fill="white"/>
<path d="M11.9415 23.2983C11.6146 23.153 11.5783 23.0319 11.7841 22.814C11.8446 22.9714 11.8931 23.1288 11.9415 23.2983Z" fill="white"/>
<path d="M12.7042 25.4291C12.3773 25.2838 12.341 25.1628 12.5468 24.9448C12.6073 25.1143 12.6558 25.2717 12.7042 25.4291Z" fill="white"/>
<path d="M0.306104 27.9838C0.366642 28.0564 0.439287 28.1169 0.499824 28.1896C0.415072 28.238 0.330319 28.2865 0.233459 28.3228C0.257674 28.2138 0.281889 28.0927 0.306104 27.9838Z" fill="white"/>
<path d="M26.4825 22.4626C26.2283 22.4868 26.1193 22.3294 26.2162 22.0509C26.3009 22.1841 26.3978 22.3294 26.4825 22.4626Z" fill="white"/>
<path d="M15.1014 28.6738C15.1983 28.7102 15.2831 28.7586 15.3799 28.7949C15.3315 28.8675 15.2831 28.9402 15.2346 29.0128C15.1983 28.9039 15.1499 28.7828 15.1014 28.6738Z" fill="white"/>
<path d="M9.87097 34.0375C9.94362 33.9769 10.0042 33.9043 10.0768 33.8438C10.1252 33.9285 10.1737 34.0133 10.21 34.1101C10.101 34.0859 9.99205 34.0617 9.87097 34.0375Z" fill="white"/>
<path d="M11.1908 21.155C10.8639 21.0097 10.8276 20.8886 11.0334 20.6707C11.0819 20.8402 11.1303 20.9976 11.1908 21.155Z" fill="white"/>
<path d="M10.089 24.5935C9.84682 24.7267 9.71364 24.5935 9.60468 24.3877C9.76207 24.4603 9.91947 24.533 10.089 24.5935Z" fill="white"/>
<path d="M0.512006 26.9424C0.572544 27.0029 0.633081 27.0635 0.693618 27.1361C0.608866 27.1845 0.524114 27.2451 0.439362 27.2935C0.463577 27.1724 0.487791 27.0635 0.512006 26.9424Z" fill="white"/>
<path d="M0.100355 29.0852C0.160892 29.1457 0.221429 29.2063 0.281967 29.2789C0.197214 29.3274 0.112462 29.3879 0.02771 29.4363C0.0519249 29.3152 0.0761397 29.1942 0.100355 29.0852Z" fill="white"/>
<path d="M0.911499 30.8773C0.972036 30.841 1.03257 30.8047 1.09311 30.7562C1.12943 30.8531 1.15365 30.9621 1.18997 31.0589C1.09311 31.0105 1.00836 30.9499 0.911499 30.8773Z" fill="white"/>
<path d="M8.27287 19.4357C8.18812 19.3509 8.10337 19.254 8.01862 19.1693C8.09126 19.133 8.16391 19.1088 8.29709 19.0482C8.28498 19.2177 8.27287 19.3267 8.27287 19.4357Z" fill="white"/>
<path d="M4.28952 20.4161C4.27741 20.5735 4.35006 20.7794 4.07158 20.743C4.04737 20.743 4.03526 20.6462 4.01105 20.5977C4.10791 20.5372 4.19266 20.4767 4.28952 20.4161Z" fill="white"/>
<path d="M12.2804 34.3159C12.3409 34.2554 12.4015 34.1948 12.4741 34.1343C12.5225 34.219 12.571 34.3038 12.6315 34.3885C12.5104 34.3522 12.4015 34.328 12.2804 34.3159Z" fill="white"/>
<path d="M18.6973 18.6852C18.552 18.7216 18.4189 18.77 18.2736 18.8063C18.322 18.4673 18.5399 18.661 18.6973 18.6852Z" fill="white"/>
<path d="M22.7655 19.7261C22.6686 19.7624 22.5718 19.7988 22.4749 19.8351C22.4628 19.7745 22.4386 19.7019 22.4265 19.6414C22.5354 19.6656 22.6444 19.6898 22.7655 19.7261Z" fill="white"/>
<path d="M19.2543 33.9164C19.3028 33.8438 19.3391 33.7711 19.3875 33.7106C19.4602 33.759 19.5207 33.8074 19.5933 33.8559C19.4844 33.868 19.3633 33.8922 19.2543 33.9164Z" fill="white"/>
<path d="M1.52903 23.7095C1.56535 23.7942 1.60167 23.879 1.63799 23.9758C1.55324 23.9758 1.4806 23.9879 1.39584 23.9879C1.44427 23.8911 1.4806 23.7942 1.52903 23.7095Z" fill="white"/>
<path d="M20.4409 23.3585C20.5377 23.3827 20.6346 23.407 20.7436 23.4312C20.6951 23.4796 20.6588 23.528 20.6104 23.5765C20.453 23.5886 20.3925 23.5159 20.4409 23.3585Z" fill="white"/>
<path d="M6.28734 19.5808C6.2147 19.8835 6.14205 19.9198 5.94833 19.714C6.0573 19.6777 6.17838 19.6292 6.28734 19.5808Z" fill="white"/>
<path d="M28.6739 29.4245C28.5891 29.3882 28.5044 29.3518 28.4196 29.3155C28.456 29.2308 28.5044 29.1581 28.5407 29.0734C28.5891 29.1944 28.6376 29.3155 28.6739 29.4245Z" fill="white"/>
<path d="M18.5643 25.1507C18.4917 25.1143 18.3706 25.078 18.3706 25.0417C18.3706 24.969 18.4432 24.8843 18.4795 24.8116C18.5038 24.9206 18.5401 25.0417 18.5643 25.1507Z" fill="white"/>
<path d="M13.3943 27.4264C13.019 27.4022 13.2127 27.1843 13.2491 27.0148C13.2975 27.148 13.3459 27.2932 13.3943 27.4264Z" fill="white"/>
<path d="M14.1571 29.5697C13.7817 29.5455 13.9754 29.3276 14.0118 29.1581C14.0602 29.2913 14.1086 29.4244 14.1571 29.5697Z" fill="white"/>
<path d="M22.693 32.8142C22.6809 32.5358 22.7898 32.4389 23.0441 32.6084C22.923 32.6689 22.814 32.7416 22.693 32.8142Z" fill="white"/>
<path d="M4.77373 20.1864C4.74951 20.2712 4.71319 20.368 4.68897 20.4528C4.62844 20.4043 4.5679 20.368 4.49525 20.3196C4.58001 20.2712 4.67687 20.2348 4.77373 20.1864Z" fill="white"/>
<path d="M21.5911 19.375C21.5184 19.4114 21.4337 19.484 21.361 19.484C21.3247 19.484 21.2884 19.3629 21.2521 19.2903C21.361 19.3145 21.4821 19.3508 21.5911 19.375Z" fill="white"/>
<path d="M7.46165 19.2417C7.41322 19.3265 7.3769 19.3991 7.32847 19.4838C7.28004 19.4354 7.23161 19.3991 7.18318 19.3507C7.28004 19.3143 7.36479 19.278 7.46165 19.2417Z" fill="white"/>
<path d="M20.6346 25.7557C20.6951 25.7921 20.7556 25.8284 20.8162 25.8768C20.792 25.9131 20.7556 25.9737 20.7435 25.9737C20.683 25.9373 20.6225 25.8889 20.5498 25.8405C20.574 25.8163 20.6104 25.78 20.6346 25.7557Z" fill="white"/>
<path d="M25.1144 20.9369C24.8238 21.1306 24.8359 20.9127 24.8359 20.7311C24.9206 20.8037 25.0175 20.8764 25.1144 20.9369Z" fill="white"/>
<path d="M13.0433 26.3975C12.9827 26.3854 12.9101 26.3611 12.8495 26.349C12.8859 26.2764 12.9222 26.2037 12.9585 26.1311C12.9948 26.2159 13.0191 26.3006 13.0433 26.3975Z" fill="white"/>
<path d="M6.14199 24.3997C6.10567 24.3391 6.06934 24.2665 6.03302 24.2059C6.11777 24.1817 6.21463 24.1575 6.29939 24.1333C6.25096 24.2181 6.19042 24.3028 6.14199 24.3997Z" fill="white"/>
<path d="M25.187 30.5385C25.3928 30.5869 25.4413 30.6837 25.2354 30.8169C25.2112 30.8169 25.187 30.8048 25.1628 30.8048C25.1386 30.7927 25.1265 30.7685 25.1022 30.7564C25.1386 30.6716 25.1628 30.599 25.187 30.5385Z" fill="white"/>
<path d="M6.71104 23.7219C6.75947 23.6372 6.8079 23.5403 6.84423 23.4556C6.89266 23.4919 6.92898 23.5282 6.97741 23.5645C6.89266 23.613 6.7958 23.6614 6.71104 23.7219Z" fill="white"/>
<path d="M13.806 28.5284C13.576 28.4799 13.5396 28.371 13.6728 28.1772C13.7213 28.2983 13.7576 28.4194 13.806 28.5284Z" fill="white"/>
<path d="M25.7925 21.5665C25.7319 21.5908 25.6835 21.6029 25.623 21.6271C25.6109 21.5423 25.5987 21.4455 25.5866 21.3607C25.6593 21.4213 25.7319 21.4939 25.7925 21.5665Z" fill="white"/>
<path d="M25.5987 21.3606C25.4897 21.3243 25.3808 21.288 25.2718 21.2516C25.3081 21.2153 25.3444 21.1911 25.3929 21.1548C25.4534 21.2274 25.526 21.288 25.5987 21.3606Z" fill="white"/>
<path d="M24.7511 20.6583C24.4968 20.8278 24.4242 20.6946 24.4121 20.4646C24.5331 20.5251 24.6421 20.5978 24.7511 20.6583Z" fill="white"/>
<path d="M5.73019 27.8502C5.66965 27.8018 5.60911 27.7413 5.56068 27.6929C5.62122 27.6565 5.66965 27.6081 5.73019 27.5718C5.71808 27.6565 5.71808 27.7534 5.73019 27.8502Z" fill="white"/>
<path d="M3.30882 21.0944C3.32092 21.167 3.32092 21.2275 3.33303 21.3002C3.24828 21.3002 3.17563 21.3002 3.09088 21.3123C3.16353 21.2275 3.23617 21.167 3.30882 21.0944Z" fill="white"/>
<path d="M5.71819 25.986C5.51236 25.9618 5.51236 25.8407 5.59711 25.6954C5.63344 25.6954 5.68187 25.7075 5.71819 25.7075C5.7303 25.8044 5.7303 25.8892 5.71819 25.986Z" fill="white"/>
<path d="M17.523 34.2431C17.5835 34.0857 17.632 33.9162 17.8015 34.1704C17.7046 34.1946 17.6199 34.2189 17.523 34.2431Z" fill="white"/>
<path d="M2.42501 22.1237C2.59452 22.3416 2.42501 22.3174 2.27972 22.3295C2.32815 22.2568 2.37658 22.1842 2.42501 22.1237Z" fill="white"/>
<path d="M21.0464 24.8116C21.0948 24.8116 21.1553 24.8238 21.2401 24.8359C21.1795 24.9206 21.1432 24.969 21.0948 25.0296C21.0827 24.9569 21.0706 24.8843 21.0464 24.8116Z" fill="white"/>
<path d="M7.12273 23.4917C7.12273 23.3343 7.15905 23.2254 7.32855 23.3707C7.25591 23.407 7.18326 23.4554 7.12273 23.4917Z" fill="white"/>
<path d="M6.77144 33.2142C6.80776 33.1779 6.85619 33.1416 6.89251 33.0931C6.91673 33.1537 6.95305 33.2142 6.97727 33.2748C6.90462 33.2505 6.84408 33.2263 6.77144 33.2142Z" fill="white"/>
<path d="M0.560344 26.6761C0.584559 26.6761 0.608774 26.6761 0.632989 26.6761C0.596667 26.7488 0.548237 26.8093 0.511914 26.882C0.487699 26.7972 0.306087 26.6761 0.560344 26.6761Z" fill="white"/>
<path d="M25.1871 31.5673C25.2476 31.6278 25.3203 31.7004 25.3808 31.761C25.3203 31.6883 25.2476 31.6278 25.1871 31.5673Z" fill="white"/>
<path d="M16.1427 34.3279C16.179 34.2795 16.2153 34.2431 16.2516 34.1947C16.2879 34.231 16.3122 34.2673 16.3485 34.3037C16.2879 34.3158 16.2153 34.3279 16.1427 34.3279Z" fill="white"/>
<path d="M0.221347 28.3951C0.197132 28.4436 0.172918 28.492 0.148703 28.5404C0.124488 28.5041 0.11238 28.4799 0.0881653 28.4436C0.136595 28.4315 0.172917 28.4072 0.221347 28.3951Z" fill="white"/>
<path d="M18.7702 23.8549C18.8428 23.7822 18.9155 23.7096 18.976 23.649C18.9034 23.7096 18.8428 23.7822 18.7702 23.8549Z" fill="white"/>
<path d="M10.985 28.1166C10.9365 28.0682 10.9002 28.0197 10.8518 27.9713C10.8881 28.0197 10.9365 28.0682 10.985 28.1166Z" fill="white"/>
<path d="M10.3916 17.2806C10.4279 17.1959 10.4522 17.099 10.4885 17.0143C10.4522 17.1111 10.4158 17.1959 10.3916 17.2806Z" fill="white"/>
<path d="M27.2574 23.9762C27.2211 23.8914 27.1847 23.8067 27.1484 23.7219C27.1847 23.8188 27.2211 23.8914 27.2574 23.9762Z" fill="white"/>
<path d="M24.0732 20.271C24.0369 20.2953 24.0127 20.3316 23.9764 20.3558C23.9885 20.3195 24.0006 20.2831 24.0127 20.2468C24.0369 20.2589 24.049 20.2589 24.0732 20.271Z" fill="white"/>
<path d="M5.05229 20.0046C5.01597 20.0289 4.96754 20.041 4.93121 20.0652C4.96754 20.041 5.00386 20.0167 5.05229 20.0046Z" fill="white"/>
<path d="M13.2369 26.6761C13.2248 26.664 13.2005 26.6398 13.1884 26.6277C13.2005 26.6398 13.2126 26.6519 13.2369 26.6761Z" fill="white"/>
<path d="M25.0539 29.9087C25.0781 29.9208 25.0902 29.945 25.1145 29.9571C25.0902 29.945 25.066 29.9329 25.0539 29.9087Z" fill="white"/>
<path d="M15.3798 24.7993C15.3798 24.8235 15.3798 24.8477 15.3798 24.872C15.3556 24.872 15.3435 24.872 15.3193 24.872C15.3435 24.8599 15.3677 24.8235 15.3798 24.7993Z" fill="white"/>
<path d="M18.0073 19.363C17.9952 19.3873 17.971 19.4115 17.9589 19.4357C17.971 19.4115 17.9831 19.3873 18.0073 19.363Z" fill="white"/>
<path d="M4.8464 20.1378C4.82219 20.1499 4.79797 20.1741 4.77376 20.1862C4.78587 20.1741 4.82219 20.1499 4.8464 20.1378Z" fill="white"/>
<path d="M6.42039 6.88013C6.40829 6.90434 6.38407 6.92856 6.37196 6.95277C6.39618 6.92856 6.40829 6.90434 6.42039 6.88013Z" fill="white"/>
<path d="M8.10329 33.6861C8.10329 33.674 8.10329 33.6498 8.10329 33.6377C8.11539 33.6498 8.11539 33.674 8.10329 33.6861Z" fill="white"/>
<path d="M13.6485 27.8381C13.6364 27.826 13.6122 27.8018 13.6001 27.7897C13.6122 27.8139 13.6364 27.826 13.6485 27.8381Z" fill="white"/>
<path d="M10.9123 6.2506C10.8881 6.22639 10.876 6.21428 10.8518 6.19006C10.8639 6.21428 10.8881 6.23849 10.9123 6.2506Z" fill="white"/>
</svg>
