<svg width="33" height="34" viewBox="0 0 33 34" fill="none" xmlns="http://www.w3.org/2000/svg">
<path d="M1.58356 13.957C2.73294 14.1352 3.72907 13.8806 4.54641 13.0911C5.3382 12.3016 5.61916 11.3338 5.46591 10.1878C5.95121 10.2642 6.38542 10.3406 6.87071 10.417C6.79409 11.3084 7.02396 12.0724 7.66251 12.6836C8.12226 13.1165 8.65864 13.3458 9.27164 13.3967C10.3955 13.4731 11.6981 12.7855 12.0302 11.2065C12.3622 11.232 12.7198 11.2574 13.0518 11.3084C15.8359 11.5885 18.6455 11.5121 21.404 11.0537C22.8599 10.799 24.3158 10.5189 25.7716 10.2387C26.8955 10.035 27.815 10.3915 28.5557 11.181C29.3986 12.0469 29.8073 13.0911 29.8073 14.2881C29.8073 17.3187 29.8073 20.3493 29.8073 23.3799C29.8073 24.8316 29.2198 26.0285 28.0704 26.8944C27.3808 27.4293 26.589 27.5821 25.7206 27.4038C23.6517 26.9708 21.5573 26.5634 19.4373 26.3342C17.1896 26.0795 14.9164 26.1049 12.6687 26.3851C10.3444 26.6907 7.99455 27.0472 5.67025 27.4038C4.59749 27.5821 3.67799 27.251 2.91173 26.5124C2.01777 25.6465 1.58356 24.6024 1.58356 23.3545C1.58356 20.3238 1.58356 17.2932 1.58356 14.2626C1.58356 14.1862 1.58356 14.0843 1.58356 13.9824V13.957Z" fill="white"/>
<path d="M25.5419 9.34736C25.2099 7.97212 26.0017 6.06206 27.8918 5.45084C29.7563 4.83962 31.7486 5.88378 32.3105 7.74291C32.9235 9.7039 31.723 11.5121 30.1905 12.0214C29.2199 10.1368 27.8662 8.93988 25.5419 9.37282V9.34736ZM26.7424 8.25226C26.7424 8.5324 26.819 8.65974 27.0233 8.6852C27.2277 8.6852 27.3554 8.58333 27.3809 8.27772C27.4575 7.4373 28.045 6.87702 28.9134 6.80061C29.1688 6.80061 29.2966 6.64781 29.271 6.46954C29.271 6.29126 29.0922 6.16393 28.8623 6.18939C27.7385 6.21486 26.7935 7.15716 26.7424 8.27772V8.25226Z" fill="white"/>
<path d="M2.27322 13.0658C1.02167 13.0658 0 12.0471 0 10.7992C0 9.55129 0.99613 8.53259 2.22214 8.53259C3.49923 8.53259 4.5209 9.52582 4.5209 10.7992C4.5209 12.0216 3.49923 13.0403 2.24768 13.0403L2.27322 13.0658Z" fill="white"/>
<path d="M6.58987 6.52066C5.90024 6.52066 5.2617 6.26598 4.7764 5.7821C4.29111 5.29822 4.03569 4.66153 4.03569 3.97391C4.03569 2.59867 5.18507 1.45264 6.56433 1.45264C7.96913 1.45264 9.09297 2.59867 9.09297 3.97391C9.09297 4.66153 8.83755 5.29822 8.35226 5.75663C7.86696 6.24052 7.25396 6.49519 6.56433 6.49519L6.58987 6.52066ZM6.58987 2.4204C5.74699 2.4204 5.00628 3.13349 5.00628 3.97391C5.00628 4.40686 5.15953 4.78887 5.46603 5.09448C5.77253 5.40009 6.15566 5.5529 6.58987 5.5529C6.99854 5.5529 7.40721 5.40009 7.68817 5.09448C7.99467 4.78887 8.14792 4.40686 8.14792 3.97391C8.14792 3.10802 7.43275 2.39493 6.56433 2.39493L6.58987 2.4204Z" fill="white"/>
<path d="M7.81582 10.7989C7.81582 9.90755 8.55654 9.19446 9.4505 9.19446C10.3189 9.19446 11.0341 9.93301 11.0341 10.8244C11.0341 11.7157 10.2934 12.4288 9.39942 12.4288C8.50545 12.4288 7.79028 11.6903 7.79028 10.7989H7.81582Z" fill="white"/>
<path d="M19.3606 5.65455C19.3606 7.66648 17.7515 9.27093 15.7337 9.27093C13.767 9.27093 12.1323 7.66648 12.1323 5.70549C12.1323 3.69356 13.7414 2.08911 15.7337 2.08911C17.7259 2.08911 19.3351 3.69356 19.3351 5.68002L19.3606 5.65455ZM15.657 3.38795C14.5077 3.38795 13.5115 4.40665 13.4605 5.55268C13.4605 5.80736 13.5626 5.96016 13.767 5.98563C13.9713 5.98563 14.099 5.85829 14.1245 5.57815C14.2012 4.68679 14.7886 4.12651 15.6826 4.02464C15.9635 3.99917 16.0913 3.87183 16.0913 3.66809C16.0913 3.46435 15.9125 3.36248 15.657 3.36248V3.38795Z" fill="white"/>
<path d="M8.58217 33.6178C8.42892 33.6178 8.27567 33.5923 8.12242 33.5159C7.61158 33.2612 7.3817 32.6755 7.63712 32.1661L23.6518 0.943055C23.9073 0.433706 24.5203 0.229966 25.0566 0.484641C25.5675 0.739315 25.7973 1.35053 25.5419 1.83442L9.52722 33.0575C9.34842 33.414 8.9653 33.6178 8.58217 33.6178Z" fill="white"/>
<path d="M8.58198 33.9745C8.37765 33.9745 8.14777 33.9236 7.96898 33.8217C7.61139 33.6435 7.35597 33.3633 7.22826 33.0068C7.10055 32.6502 7.15164 32.2937 6.8196 31.4533L22.8088 0.281101C23.6516 0.102829 24.4945 -0.177313 25.2097 0.153764C25.5673 0.332036 25.8227 0.612178 25.9504 0.968722C26.0781 1.32527 26.0526 1.68181 26.4357 2.59864L10.4465 33.7963C9.62919 33.6944 9.1439 34 8.60752 34L8.58198 33.9745ZM24.5711 0.764983C24.3157 0.764983 24.0859 0.89232 23.9581 1.12153L7.99452 32.3191C7.91789 32.472 7.91789 32.6248 7.96898 32.7776C8.02006 32.9304 8.14777 33.0832 8.30102 33.1596C8.63306 33.3124 9.04173 33.1596 9.19498 32.8794L25.1842 1.68181C25.2608 1.52901 25.2608 1.3762 25.2097 1.2234C25.1586 1.07059 25.0309 0.917787 24.8777 0.866853C24.7755 0.815918 24.6733 0.79045 24.5711 0.79045V0.764983Z" fill="white"/>
</svg>
