<svg width="40" height="41" viewBox="0 0 40 41" fill="none" xmlns="http://www.w3.org/2000/svg">
<circle cx="20" cy="20.1814" r="19.5" fill="white" stroke="#D54598"/>
<path d="M27.7537 18.6307C27.6577 17.6953 27.4483 16.661 26.682 16.1174C26.0865 15.6958 25.3058 15.6805 24.5759 15.6814C23.0335 15.6824 21.4912 15.6843 19.9498 15.6853C18.467 15.6862 16.9833 15.6882 15.5005 15.6891C14.881 15.6891 14.2789 15.6411 13.7036 15.909C13.2091 16.1395 12.823 16.5775 12.5906 17.0644C12.267 17.7424 12.1997 18.5097 12.1604 19.2588C12.0883 20.6234 12.096 21.992 12.1824 23.3547C12.2449 24.3506 12.4043 25.4502 13.1735 26.0841C13.8554 26.6459 14.8186 26.6737 15.7022 26.6747C18.5093 26.6766 21.3174 26.6785 24.1245 26.6814C24.4847 26.6814 24.8602 26.6747 25.227 26.6353C25.9492 26.5575 26.6368 26.351 27.1007 25.8161C27.5684 25.2774 27.6884 24.5264 27.7604 23.8157C27.9333 22.0928 27.9314 20.3517 27.7537 18.6297V18.6307ZM18.3259 23.5977V18.7651L22.5111 21.1814L18.3259 23.5977Z" fill="#D54598"/>
</svg>
